<?xml version="1.0" encoding="UTF-8" standalone="no"?>
<!-- Created with Inkscape (http://www.inkscape.org/) -->

<svg
   version="1.1"
   id="svg9"
   width="140"
   height="130"
   viewBox="0 0 140 130"
   sodipodi:docname="imagem de simbolo OPM fundo azul.svg"
   inkscape:version="1.2.1 (9c6d41e410, 2022-07-14)"
   inkscape:export-filename="imagem de simbolo OPM.png"
   inkscape:export-xdpi="96"
   inkscape:export-ydpi="96"
   xmlns:inkscape="http://www.inkscape.org/namespaces/inkscape"
   xmlns:sodipodi="http://sodipodi.sourceforge.net/DTD/sodipodi-0.dtd"
   xmlns="http://www.w3.org/2000/svg"
   xmlns:svg="http://www.w3.org/2000/svg">
  <defs
     id="defs13" />
  <sodipodi:namedview
     id="namedview11"
     pagecolor="#ffffff"
     bordercolor="#000000"
     borderopacity="0.25"
     inkscape:showpageshadow="2"
     inkscape:pageopacity="0.0"
     inkscape:pagecheckerboard="0"
     inkscape:deskcolor="#d1d1d1"
     showgrid="false"
     inkscape:zoom="5.6568543"
     inkscape:cx="57.894367"
     inkscape:cy="63.286056"
     inkscape:window-width="1920"
     inkscape:window-height="1017"
     inkscape:window-x="-8"
     inkscape:window-y="-8"
     inkscape:window-maximized="1"
     inkscape:current-layer="g15" />
  <g
     inkscape:groupmode="layer"
     inkscape:label="Image"
     id="g15">
    <rect
       style="fill:#324f61;stroke:#35379d;fill-opacity:1;stroke-opacity:1"
       id="rect25208"
       width="139.83037"
       height="129.40054"
       x="0.35355338"
       y="0.35355338" />
    <path
       style="fill:#6a1083;fill-opacity:1;stroke:#873988;stroke-width:1.0845;stroke-opacity:1"
       d="m 71.20313,44.617411 c -2.964612,2.566444 -3.181462,6.413188 -2.899159,9.600993 0.870623,9.830873 0.980671,22.786647 1.13733,32.352109 0.08657,5.286277 0.223411,10.576586 0.64926,15.850367 0.145192,1.79805 0.64925,5.3778 0.64925,5.3778 v 2.54739 c 0,0 3.321404,-4.62177 3.279584,-9.28967 -0.01313,-1.464627 -1.709141,-8.004943 -1.709141,-8.004943 0,0 1.367129,-11.598244 1.523233,-18.201826 0.120593,-5.10153 0.152594,-17.43247 0.152594,-17.43247 0,0 -0.625145,-12.574963 -1.02659,-11.904676 -0.651126,1.087212 -0.758113,-1.759253 -1.756361,-0.895074 z"
       id="path231"
       sodipodi:nodetypes="ssssccscscss" />
    <path
       style="fill:#6a1083;fill-opacity:1;stroke:#6a146c;stroke-width:1.07875;stroke-opacity:1"
       d="m 68.297996,57.983625 c -3.804252,4.686967 -9.337399,8.307807 -15.093255,11.04065 -4.531575,2.151546 -9.72069,3.092783 -14.772115,3.963304 -3.481139,0.599898 -10.597387,0.849269 -10.597387,0.849269 l -3.713675,-0.63814 9.172935,-2.192787 c 0,0 9.844448,-2.016741 14.129848,-4.246397 4.111323,-2.139085 7.524706,-5.271897 10.597389,-8.492805 4.243183,-4.447869 7.998384,-9.379873 10.597384,-14.720849 0.695986,-1.430256 1.28453,-4.529493 1.28453,-4.529493 0,0 1.817335,4.120783 2.569074,6.228053 0.997045,2.794913 2.009417,4.943318 3.787693,7.418512 1.950706,2.7152 4.226758,5.35929 7.130825,7.30234 2.88522,1.930459 5.819315,3.837757 8.991723,5.378772 3.988652,1.93752 8.178755,3.61126 12.524185,4.812586 4.37233,1.208766 13.4687,4.897253 10.76212,3.534988 -0.59388,-0.298898 -0.34402,0.354638 -1.64015,0.354621 -5.64468,-7.7e-5 -9.04993,-1.83217 -14.581214,-3.040328 C 94.276719,69.876423 89.312275,67.940363 84.675761,65.627148 81.079774,63.833057 77.259057,61.990111 74.72065,59.116 73.511652,57.747106 72.472724,54.303414 72.472724,54.303414 l -1.605665,-2.26475 c 0,0 -1.169281,4.220392 -2.569063,5.944961 z"
       id="path233"
       sodipodi:nodetypes="ssscccssscssssssssssccs" />
    <path
       style="fill:#6a1083;fill-opacity:1;stroke:#e323e3;stroke-width:0.650703;stroke-dasharray:none;stroke-opacity:1"
       d="m 56.456186,21.187768 c 0.399375,-0.563467 -1.987099,-0.548858 -4.220161,-0.566084 0,0 -3.278479,6.206209 -3.279585,9.519407 -9.93e-4,2.991042 0.730894,6.172273 2.954957,8.595292 2.157283,2.350267 5.532988,3.753009 8.764952,4.811717 2.89871,0.949543 6.157974,1.211639 9.175582,1.265235 4.095415,0.07274 7.775513,-0.270429 11.600606,-1.548278 2.907873,-0.971434 5.896112,-2.252001 7.347114,-3.812612 3.26079,-3.507093 3.035256,-4.572908 3.365612,-7.226031 0.379893,-3.051 -0.219109,-6.396903 -1.707904,-9.05735 -0.698907,-1.248932 -3.161535,-2.830423 -3.161535,-2.830423 0,0 -2.330472,0.887081 -2.153084,2.143401 0.121894,0.863323 1.83937,2.408687 2.153084,3.2344 0.989132,2.603447 0.607509,7.601725 -1.675837,10.535419 -1.871979,2.405178 -5.551294,3.344626 -8.698348,4.303712 -1.861391,0.567269 -3.816657,0.516432 -5.84328,0.803178 -3.097556,0.43827 -5.322924,0.05865 -7.771681,-0.71606 -2.604679,-0.824041 -5.128904,-2.181953 -6.903191,-4.037578 -1.352173,-1.414158 -2.274543,-3.182554 -2.524931,-5.06572 -0.273844,-2.059581 0.725544,-2.948167 1.212556,-6.109066 0.373632,-2.425024 1.509662,-4.273142 1.568617,-4.242559 z"
       id="path235"
       sodipodi:nodetypes="ccasssssaacssaasaaascc" />
    <ellipse
       style="fill:#000000;fill-opacity:1;stroke:#000000;stroke-width:1.0845;stroke-opacity:1"
       id="path351"
       cx="71.064445"
       cy="12.979544"
       rx="9.251893"
       ry="6.2269282" />
    <ellipse
       style="fill:#000000;stroke:#c04ece;stroke-width:1.0845;stroke-opacity:1"
       id="path353"
       cx="45.013062"
       cy="97.326118"
       rx="6.7360282"
       ry="3.8210697" />
    <ellipse
       style="fill:#000000;stroke:#c04ece;stroke-width:1.0845;stroke-opacity:1"
       id="path355"
       cx="95.00576"
       cy="97.609146"
       rx="4.9505749"
       ry="3.8210697" />
    <ellipse
       style="fill:none;fill-opacity:1;stroke:#000000;stroke-width:0;stroke-dasharray:none;stroke-opacity:1"
       id="path3467"
       cx="121.78754"
       cy="20.975485"
       rx="3.9766915"
       ry="10.543321" />
    <ellipse
       style="fill:none;fill-opacity:1;stroke:#8c3999;stroke-width:1.0845;stroke-dasharray:none;stroke-opacity:1"
       id="path3483"
       cx="69.460617"
       cy="52.63599"
       rx="62.66621"
       ry="39.527855" />
    <ellipse
       style="fill:none;fill-opacity:1;stroke:#ce00d3;stroke-width:1.51831;stroke-dasharray:none;stroke-opacity:1"
       id="path3499"
       cx="70.378799"
       cy="53.636703"
       rx="54.632084"
       ry="35.92532" />
    <ellipse
       style="fill:none;fill-opacity:1;stroke:#8c3999;stroke-width:1.51831;stroke-dasharray:none;stroke-opacity:1"
       id="path10705"
       cx="70.837906"
       cy="92.964432"
       rx="24.561481"
       ry="16.211424" />
    <ellipse
       style="fill:none;fill-opacity:1;stroke:#8c3999;stroke-width:1.51831;stroke-dasharray:none;stroke-opacity:1"
       id="path10709"
       cx="70.952667"
       cy="92.063782"
       rx="20.544418"
       ry="14.91051" />
    <ellipse
       style="fill:none;fill-opacity:1;stroke:#8c3999;stroke-width:1.51831;stroke-dasharray:none;stroke-opacity:1"
       id="path10717"
       cx="70.399208"
       cy="93.762764"
       rx="26.896481"
       ry="18.259535" />
  </g>
</svg>
