<?xml version="1.0" encoding="UTF-8" standalone="no"?>
<!-- Created with Inkscape (http://www.inkscape.org/) -->

<svg
   version="1.1"
   id="svg9"
   width="131"
   height="105"
   viewBox="0 0 131 105"
   sodipodi:docname="imagem de simbolo OPM azul.svg"
   inkscape:version="1.2.1 (9c6d41e410, 2022-07-14)"
   xmlns:inkscape="http://www.inkscape.org/namespaces/inkscape"
   xmlns:sodipodi="http://sodipodi.sourceforge.net/DTD/sodipodi-0.dtd"
   xmlns="http://www.w3.org/2000/svg"
   xmlns:svg="http://www.w3.org/2000/svg">
  <defs
     id="defs13" />
  <sodipodi:namedview
     id="namedview11"
     pagecolor="#ffffff"
     bordercolor="#000000"
     borderopacity="0.25"
     inkscape:showpageshadow="2"
     inkscape:pageopacity="0.0"
     inkscape:pagecheckerboard="0"
     inkscape:deskcolor="#d1d1d1"
     showgrid="false"
     inkscape:zoom="5.6568543"
     inkscape:cx="95.459415"
     inkscape:cy="65.76093"
     inkscape:window-width="1920"
     inkscape:window-height="1017"
     inkscape:window-x="-8"
     inkscape:window-y="-8"
     inkscape:window-maximized="1"
     inkscape:current-layer="g15" />
  <g
     inkscape:groupmode="layer"
     inkscape:label="Image"
     id="g15">
    <path
       style="fill:#103683;fill-opacity:1;stroke:#80eaef;stroke-width:0.924929;stroke-opacity:1"
       d="m 65.140727,41.737646 c -2.57539,2.148868 -2.76377,5.369723 -2.51853,8.038853 0.75632,8.23133 0.85192,19.07912 0.98801,27.088224 0.0752,4.42617 0.19408,8.85571 0.56402,13.27141 0.12613,1.5055 0.56401,4.5028 0.56401,4.5028 v 2.13291 c 0,0 2.88534,-3.86977 2.84901,-7.77818 -0.0114,-1.22632 -1.48475,-6.70249 -1.48475,-6.70249 0,0 1.18764,-9.711134 1.32325,-15.240274 0.10476,-4.27148 0.13256,-14.5961 0.13256,-14.5961 0,0 -0.54307,-10.52894 -0.89181,-9.967712 -0.56564,0.910315 -0.65858,-1.473012 -1.52577,-0.749441 z"
       id="path231"
       sodipodi:nodetypes="ssssccscscss" />
    <path
       style="fill:#103783;fill-opacity:1;stroke:#80e7ef;stroke-width:0.92002;stroke-opacity:1"
       d="m 62.617006,52.929095 c -3.304794,3.924369 -8.111498,6.956076 -13.111672,9.244269 -3.936628,1.801476 -8.444467,2.589568 -12.832694,3.31845 -3.024103,0.502291 -9.206064,0.711088 -9.206064,0.711088 l -3.226109,-0.534311 7.968627,-1.836007 c 0,0 8.551977,-1.688605 12.274751,-3.555482 3.571549,-1.791043 6.536792,-4.414127 9.206064,-7.110974 3.686099,-3.724173 6.948283,-7.85371 9.206061,-12.325676 0.60461,-1.197545 1.115886,-3.792517 1.115886,-3.792517 0,0 1.578738,3.450306 2.231781,5.21471 0.866144,2.340164 1.745603,4.139011 3.29041,6.211475 1.694598,2.273421 3.67183,4.487301 6.194624,6.114205 2.506421,1.616361 5.055299,3.21333 7.811206,4.503613 3.46498,1.622273 7.104966,3.023686 10.879893,4.029548 3.798293,1.012093 11.70041,4.10044 9.34917,2.959824 -0.51591,-0.250265 -0.29886,0.296937 -1.42482,0.296922 -4.9036,-6.4e-5 -7.861771,-1.534065 -12.666857,-2.545648 -4.49226,-0.945721 -8.804925,-2.566773 -12.832717,-4.503613 -3.123872,-1.502182 -6.44297,-3.04527 -8.648111,-5.451745 -1.05027,-1.146167 -1.952798,-4.029548 -1.952798,-4.029548 l -1.394859,-1.896262 c 0,0 -1.015766,3.533708 -2.231772,4.977679 z"
       id="path233"
       sodipodi:nodetypes="ssscccssscssssssssssccs" />
    <path
       style="fill:#103683;fill-opacity:1;stroke:#7fe6ee;stroke-width:0.554957;stroke-dasharray:none;stroke-opacity:1"
       d="m 52.329899,22.12015 c 0.346942,-0.471788 -1.726214,-0.459556 -3.666099,-0.473979 0,0 -2.84805,5.19642 -2.84901,7.970541 -8.68e-4,2.504382 0.634935,5.168006 2.567002,7.196786 1.874056,1.967864 4.806567,3.142371 7.614208,4.028821 2.518141,0.795046 5.349497,1.014498 7.970927,1.059373 3.55773,0.0609 6.75467,-0.226428 10.07757,-1.296363 2.5261,-0.813376 5.122016,-1.885587 6.382516,-3.192278 2.83268,-2.936466 2.636761,-3.828867 2.92374,-6.050311 0.330016,-2.554583 -0.190338,-5.356088 -1.48367,-7.583664 -0.607147,-1.045722 -2.74646,-2.369895 -2.74646,-2.369895 0,0 -2.024506,0.742747 -1.870407,1.794656 0.10589,0.722855 1.59788,2.016779 1.870407,2.708144 0.85927,2.17985 0.52775,6.364877 -1.455817,8.821242 -1.626209,2.01384 -4.822469,2.800434 -7.556349,3.603471 -1.61701,0.474971 -3.31557,0.432406 -5.07612,0.672496 -2.69088,0.366961 -4.62408,0.04911 -6.751342,-0.599553 -2.262713,-0.689964 -4.455534,-1.826935 -5.996876,-3.380639 -1.174647,-1.184066 -1.975919,-2.664733 -2.193434,-4.241496 -0.237892,-1.724475 0.630288,-2.468483 1.05336,-5.115084 0.324578,-2.030457 1.31146,-3.577875 1.362675,-3.552268 z"
       id="path235"
       sodipodi:nodetypes="ccasssssaacssaasaaascc" />
    <ellipse
       style="fill:#000000;fill-opacity:1;stroke:#000000;stroke-width:0.924929;stroke-opacity:1"
       id="path351"
       cx="65.020256"
       cy="15.247453"
       rx="8.037219"
       ry="5.2137685" />
    <ellipse
       style="fill:#000000;stroke:#81ebef;stroke-width:0.924929;stroke-opacity:1"
       id="path353"
       cx="42.389133"
       cy="85.870323"
       rx="5.8516598"
       ry="3.199358" />
    <ellipse
       style="fill:#000000;stroke:#81ebef;stroke-width:0.924929;stroke-opacity:1"
       id="path355"
       cx="85.818329"
       cy="86.1073"
       rx="4.3006177"
       ry="3.199358" />
    <ellipse
       style="fill:none;fill-opacity:1;stroke:#000000;stroke-width:0;stroke-dasharray:none;stroke-opacity:1"
       id="path3467"
       cx="109.08395"
       cy="21.942406"
       rx="3.4545944"
       ry="8.827858" />
    <ellipse
       style="fill:none;fill-opacity:1;stroke:#35839d;stroke-width:0.924929;stroke-dasharray:none;stroke-opacity:1"
       id="path3483"
       cx="63.803772"
       cy="48.274776"
       rx="54.438808"
       ry="33.096432" />
    <ellipse
       style="fill:none;fill-opacity:1;stroke:#35849e;stroke-width:1.2949;stroke-dasharray:none;stroke-opacity:1"
       id="path3499"
       cx="64.424622"
       cy="49.289444"
       rx="47.459473"
       ry="30.08005" />
    <ellipse
       style="fill:none;fill-opacity:1;stroke:#81ebef;stroke-width:1.2949;stroke-dasharray:none;stroke-opacity:1"
       id="path10705"
       cx="64.823456"
       cy="82.2183"
       rx="21.336823"
       ry="13.573727" />
    <ellipse
       style="fill:none;fill-opacity:1;stroke:#81ebef;stroke-width:1.2949;stroke-dasharray:none;stroke-opacity:1"
       id="path10709"
       cx="64.923149"
       cy="81.464203"
       rx="17.847157"
       ry="12.484478" />
    <ellipse
       style="fill:none;fill-opacity:1;stroke:#81ebef;stroke-width:1.2949;stroke-dasharray:none;stroke-opacity:1"
       id="path10717"
       cx="64.442352"
       cy="82.886749"
       rx="23.365261"
       ry="15.288597" />
  </g>
</svg>
