<?xml version="1.0" encoding="UTF-8" standalone="no"?>
<!-- Created with Inkscape (http://www.inkscape.org/) -->

<svg
   version="1.1"
   id="svg9"
   width="131"
   height="105"
   viewBox="0 0 131 105"
   sodipodi:docname="imagem de simbolo OPM verde.svg"
   inkscape:version="1.2.1 (9c6d41e410, 2022-07-14)"
   xmlns:inkscape="http://www.inkscape.org/namespaces/inkscape"
   xmlns:sodipodi="http://sodipodi.sourceforge.net/DTD/sodipodi-0.dtd"
   xmlns="http://www.w3.org/2000/svg"
   xmlns:svg="http://www.w3.org/2000/svg">
  <defs
     id="defs13" />
  <sodipodi:namedview
     id="namedview11"
     pagecolor="#ffffff"
     bordercolor="#000000"
     borderopacity="0.25"
     inkscape:showpageshadow="2"
     inkscape:pageopacity="0.0"
     inkscape:pagecheckerboard="0"
     inkscape:deskcolor="#d1d1d1"
     showgrid="false"
     inkscape:zoom="5.6568543"
     inkscape:cx="60.899571"
     inkscape:cy="65.672542"
     inkscape:window-width="1377"
     inkscape:window-height="1040"
     inkscape:window-x="181"
     inkscape:window-y="13"
     inkscape:window-maximized="0"
     inkscape:current-layer="g15" />
  <g
     inkscape:groupmode="layer"
     inkscape:label="Image"
     id="g15">
    <path
       style="fill:#10832f;fill-opacity:1;stroke:#22e322;stroke-width:0.924929;stroke-opacity:1"
       d="m 65.140727,41.737646 c -2.57539,2.148868 -2.76377,5.369723 -2.51853,8.038853 0.75632,8.23133 0.85192,19.07912 0.98801,27.088224 0.0752,4.42617 0.19408,8.85571 0.56402,13.27141 0.12613,1.5055 0.56401,4.5028 0.56401,4.5028 v 2.13291 c 0,0 2.88534,-3.86977 2.84901,-7.77818 -0.0114,-1.22632 -1.48475,-6.70249 -1.48475,-6.70249 0,0 1.18764,-9.711134 1.32325,-15.240274 0.10476,-4.27148 0.13256,-14.5961 0.13256,-14.5961 0,0 -0.54307,-10.52894 -0.89181,-9.967712 -0.56564,0.910315 -0.65858,-1.473012 -1.52577,-0.749441 z"
       id="path231"
       sodipodi:nodetypes="ssssccscscss" />
    <path
       style="fill:#10832f;fill-opacity:1;stroke:#22e222;stroke-width:0.92002;stroke-opacity:1"
       d="m 62.617006,52.929095 c -3.304794,3.924369 -8.111498,6.956076 -13.111672,9.244269 -3.936628,1.801476 -8.444467,2.589568 -12.832694,3.31845 -3.024103,0.502291 -9.206064,0.711088 -9.206064,0.711088 l -3.226109,-0.534311 7.968627,-1.836007 c 0,0 8.551977,-1.688605 12.274751,-3.555482 3.571549,-1.791043 6.536792,-4.414127 9.206064,-7.110974 3.686099,-3.724173 6.948283,-7.85371 9.206061,-12.325676 0.60461,-1.197545 1.115886,-3.792517 1.115886,-3.792517 0,0 1.578738,3.450306 2.231781,5.21471 0.866144,2.340164 1.745603,4.139011 3.29041,6.211475 1.694598,2.273421 3.67183,4.487301 6.194624,6.114205 2.506421,1.616361 5.055299,3.21333 7.811206,4.503613 3.46498,1.622273 7.104966,3.023686 10.879893,4.029548 3.798293,1.012093 11.70041,4.10044 9.34917,2.959824 -0.51591,-0.250265 -0.29886,0.296937 -1.42482,0.296922 -4.9036,-6.4e-5 -7.861771,-1.534065 -12.666857,-2.545648 -4.49226,-0.945721 -8.804925,-2.566773 -12.832717,-4.503613 -3.123872,-1.502182 -6.44297,-3.04527 -8.648111,-5.451745 -1.05027,-1.146167 -1.952798,-4.029548 -1.952798,-4.029548 l -1.394859,-1.896262 c 0,0 -1.015766,3.533708 -2.231772,4.977679 z"
       id="path233"
       sodipodi:nodetypes="ssscccssscssssssssssccs" />
    <path
       style="fill:#10832f;fill-opacity:1;stroke:#23e323;stroke-width:0.554957;stroke-dasharray:none;stroke-opacity:1"
       d="m 52.329899,22.12015 c 0.346942,-0.471788 -1.726214,-0.459556 -3.666099,-0.473979 0,0 -2.84805,5.19642 -2.84901,7.970541 -8.68e-4,2.504382 0.634935,5.168006 2.567002,7.196786 1.874056,1.967864 4.806567,3.142371 7.614208,4.028821 2.518141,0.795046 5.349497,1.014498 7.970927,1.059373 3.55773,0.0609 6.75467,-0.226428 10.07757,-1.296363 2.5261,-0.813376 5.122016,-1.885587 6.382516,-3.192278 2.83268,-2.936466 2.636761,-3.828867 2.92374,-6.050311 0.330016,-2.554583 -0.190338,-5.356088 -1.48367,-7.583664 -0.607147,-1.045722 -2.74646,-2.369895 -2.74646,-2.369895 0,0 -2.024506,0.742747 -1.870407,1.794656 0.10589,0.722855 1.59788,2.016779 1.870407,2.708144 0.85927,2.17985 0.52775,6.364877 -1.455817,8.821242 -1.626209,2.01384 -4.822469,2.800434 -7.556349,3.603471 -1.61701,0.474971 -3.31557,0.432406 -5.07612,0.672496 -2.69088,0.366961 -4.62408,0.04911 -6.751342,-0.599553 -2.262713,-0.689964 -4.455534,-1.826935 -5.996876,-3.380639 -1.174647,-1.184066 -1.975919,-2.664733 -2.193434,-4.241496 -0.237892,-1.724475 0.630288,-2.468483 1.05336,-5.115084 0.324578,-2.030457 1.31146,-3.577875 1.362675,-3.552268 z"
       id="path235"
       sodipodi:nodetypes="ccasssssaacssaasaaascc" />
    <ellipse
       style="fill:#000000;fill-opacity:1;stroke:#000000;stroke-width:0.924929;stroke-opacity:1"
       id="path351"
       cx="65.020256"
       cy="15.247453"
       rx="8.037219"
       ry="5.2137685" />
    <ellipse
       style="fill:#000000;stroke:#c04ece;stroke-width:0.924929;stroke-opacity:1"
       id="path353"
       cx="42.389133"
       cy="85.870323"
       rx="5.8516598"
       ry="3.199358" />
    <ellipse
       style="fill:#000000;stroke:#c04ece;stroke-width:0.924929;stroke-opacity:1"
       id="path355"
       cx="85.818329"
       cy="86.1073"
       rx="4.3006177"
       ry="3.199358" />
    <ellipse
       style="fill:none;fill-opacity:1;stroke:#000000;stroke-width:0;stroke-dasharray:none;stroke-opacity:1"
       id="path3467"
       cx="109.08395"
       cy="21.942406"
       rx="3.4545944"
       ry="8.827858" />
    <ellipse
       style="fill:none;fill-opacity:1;stroke:#8c3999;stroke-width:0.924929;stroke-dasharray:none;stroke-opacity:1"
       id="path3483"
       cx="63.626995"
       cy="48.451553"
       rx="54.438808"
       ry="33.096432" />
    <ellipse
       style="fill:none;fill-opacity:1;stroke:#ce00d3;stroke-width:1.2949;stroke-dasharray:none;stroke-opacity:1"
       id="path3499"
       cx="64.424622"
       cy="49.289444"
       rx="47.459473"
       ry="30.08005" />
    <ellipse
       style="fill:none;fill-opacity:1;stroke:#8c3999;stroke-width:1.2949;stroke-dasharray:none;stroke-opacity:1"
       id="path10705"
       cx="64.823456"
       cy="82.2183"
       rx="21.336823"
       ry="13.573727" />
    <ellipse
       style="fill:none;fill-opacity:1;stroke:#8c3999;stroke-width:1.2949;stroke-dasharray:none;stroke-opacity:1"
       id="path10709"
       cx="64.923149"
       cy="81.464203"
       rx="17.847157"
       ry="12.484478" />
    <ellipse
       style="fill:none;fill-opacity:1;stroke:#399939;stroke-width:1.2949;stroke-dasharray:none;stroke-opacity:1"
       id="path10717"
       cx="64.442352"
       cy="82.886749"
       rx="23.365261"
       ry="15.288597" />
    <path
       style="fill:#10832f;fill-opacity:1;stroke:#399939;stroke-width:0.176777;stroke-opacity:1"
       d=""
       id="path1073" />
    <path
       style="fill:#10832f;fill-opacity:1;stroke:#399939;stroke-width:0.176777;stroke-opacity:1"
       d="M 60.546018,98.531334 C 51.503822,97.490722 44.249948,93.234356 41.55482,87.38784 c -0.793359,-1.721027 -1.053077,-3.139819 -0.942161,-5.146851 0.162889,-2.947492 1.288445,-5.316189 3.739127,-7.868876 3.60973,-3.759979 9.325688,-6.295934 16.012818,-7.104282 1.924983,-0.232694 6.216018,-0.232694 8.141002,0 6.770036,0.81837 12.46695,3.3685 16.096265,7.20523 1.682762,1.778931 2.4507,2.964239 3.136077,4.840524 0.42483,1.163016 0.472942,1.533332 0.467016,3.594684 -0.0055,1.927204 -0.07166,2.483543 -0.409703,3.447146 -1.295775,3.693682 -4.535547,6.96247 -9.122487,9.204184 -3.33651,1.630608 -6.583723,2.54751 -10.562586,2.982511 -1.978218,0.216276 -5.636539,0.211063 -7.56417,-0.01078 z m 6.55268,-1.037294 c 9.750432,-0.80815 17.633382,-5.433106 19.625151,-11.51415 0.591566,-1.806099 0.599538,-4.48986 0.01838,-6.187367 -0.825236,-2.41044 -2.501315,-4.586321 -4.959603,-6.438543 -8.796571,-6.627866 -24.324337,-6.941765 -33.732319,-0.68191 -9.448533,6.286837 -8.246767,16.471536 2.584041,21.899181 4.635018,2.322749 10.704384,3.400196 16.464348,2.922789 z"
       id="path1075" />
    <path
       style="fill:#10832f;fill-opacity:1;stroke:#399939;stroke-width:0.176777;stroke-opacity:1"
       d=""
       id="path1077" />
    <path
       style="fill:#10832f;fill-opacity:1;stroke:#399939;stroke-width:0.176777;stroke-opacity:1"
       d="m 62.215189,96.239939 c -4.82443,-0.348634 -9.371739,-1.804443 -13.071268,-4.184736 -1.906653,-1.226747 -4.116804,-3.557495 -4.985801,-5.257846 -1.190941,-2.330296 -1.447066,-4.023626 -1.005505,-6.64774 0.09205,-0.54706 0.05438,-0.651157 -0.266018,-0.734942 -0.502051,-0.131289 -0.296772,-0.660658 0.25619,-0.660658 0.330658,0 0.539125,-0.239276 1.041659,-1.195599 1.651872,-3.143517 5.503499,-6.107385 9.775056,-7.522007 8.076153,-2.6746 17.480339,-2.097035 24.491081,1.504138 4.199368,2.157067 7.140483,5.218831 7.934306,8.259776 1.843809,7.063203 -4.676757,13.87 -15.266948,15.937119 -1.501425,0.293065 -5.945039,0.737616 -6.682836,0.668567 -0.145841,-0.01365 -1.144802,-0.08838 -2.219916,-0.166072 z m 6.875928,-1.310812 c 6.058515,-0.794201 11.25717,-3.252138 14.099405,-6.666231 1.854483,-2.227606 2.697483,-4.918424 2.292707,-7.31821 -0.285473,-1.692474 -0.301306,-1.709678 -1.350488,-1.467498 l -0.870918,0.201032 -7.07e-4,1.703413 c -8.84e-4,2.139344 -0.508023,3.808283 -1.697819,5.587172 C 78.464565,91.601795 72.044854,94.49 64.854343,94.4861 57.034675,94.4819 49.842144,90.766285 47.404153,85.471531 46.776169,84.107697 46.772062,84.088524 46.642752,81.917824 l -0.101124,-1.697552 -0.99695,-0.185217 c -0.630264,-0.117094 -1.061971,-0.123442 -1.173728,-0.01726 -0.241822,0.229757 -0.291875,3.236949 -0.07018,4.216302 0.226794,1.001868 1.087853,2.764633 1.686382,3.452376 0.251342,0.288804 0.578769,0.707701 0.727615,0.930879 0.49786,0.746486 3.036837,2.624098 4.783728,3.53764 2.692147,1.407867 5.995988,2.408227 9.401073,2.846523 1.908693,0.245685 6.043926,0.209143 8.191546,-0.07239 z m 0.713355,-2.046438 c 3.623513,-0.738424 6.687675,-2.230694 8.961591,-4.364355 2.327846,-2.184267 3.357254,-4.306137 3.374633,-6.955971 0.0051,-0.778718 -0.02379,-1.44893 -0.06423,-1.489361 -0.04043,-0.04043 -1.066621,0.117246 -2.280424,0.350393 -9.879268,1.897608 -21.196321,1.956199 -31.518963,0.16318 l -0.69006,-0.119862 0.09705,1.397555 c 0.268334,3.864245 2.760568,7.08225 7.170249,9.258318 1.384943,0.683434 3.478917,1.411003 5.07298,1.762647 2.776962,0.612586 6.863841,0.611534 9.877173,-0.0025 z m 1.963799,-12.108896 c 3.072195,-0.282025 6.634429,-0.787725 8.80126,-1.249439 1.587657,-0.338302 1.564732,-0.236635 0.510438,-2.263795 -0.803293,-1.544544 -2.663645,-3.451159 -4.447272,-4.557869 -3.648272,-2.263688 -8.019745,-3.308253 -12.892142,-3.08058 -5.645394,0.263792 -10.295992,2.167056 -13.398058,5.483174 -1.026144,1.096952 -2.187405,3.092422 -2.443624,4.19904 l -0.106949,0.46192 1.825047,0.283139 c 7.497456,1.163162 14.778135,1.401261 22.1513,0.72441 z M 47.002877,78.533046 c 0.644663,-2.211577 2.61025,-4.66663 5.239113,-6.543746 0.240606,-0.171802 -5.8e-5,-0.101839 -0.534807,0.155473 -2.567455,1.235416 -5.411823,3.792559 -6.497438,5.841326 l -0.575418,1.085927 0.663807,0.176278 c 1.303651,0.346195 1.408112,0.302366 1.704743,-0.715258 z m 37.098847,0.211617 0.663125,-0.184158 -0.291121,-0.566157 c -0.78354,-1.523777 -2.53926,-3.350469 -4.482274,-4.663463 -1.800589,-1.216749 -1.839784,-1.068039 -0.164074,0.622508 1.335789,1.347615 1.825575,1.986234 2.326048,3.032873 0.348679,0.729195 0.678552,1.465021 0.733048,1.635169 0.114541,0.357612 0.302603,0.376682 1.215248,0.123228 z"
       id="path1079" />
    <path
       style="fill:#10832f;fill-opacity:1;stroke:#399939;stroke-width:0.176777;stroke-opacity:1"
       d=""
       id="path1081" />
    <path
       style="fill:#10832f;fill-opacity:1;stroke:#399939;stroke-width:0.176777;stroke-opacity:1"
       d="M 38.570145,78.209243 C 25.851166,74.254983 15.835593,67.021238 11.421426,58.601092 9.6618728,55.244695 8.88294,52.125792 8.88294,48.436814 c 0,-3.528323 0.7314882,-6.607202 2.32071,-9.768006 5.873972,-11.682751 21.841094,-20.53861 41.485384,-23.009078 8.226698,-1.034589 17.388689,-0.846015 25.446265,0.523742 19.050618,3.238532 33.879401,12.479432 38.609631,24.060494 3.55723,8.709177 1.33035,17.889163 -6.17111,25.439523 -4.72746,4.758278 -10.912798,8.536112 -18.738328,11.444856 -2.981319,1.108155 -4.234864,1.478886 -4.269157,1.26259 -0.01458,-0.09199 -0.03447,-0.251015 -0.04419,-0.353396 -0.0097,-0.102382 1.096016,-0.56505 2.457196,-1.028156 6.382643,-2.171516 12.229239,-5.244229 16.785729,-8.821839 1.92015,-1.507637 5.18181,-4.900353 6.49901,-6.760139 5.39254,-7.613836 5.84291,-16.19079 1.2602,-23.999688 -6.43999,-10.973693 -21.824897,-18.861601 -41.338725,-21.194543 -3.840885,-0.459191 -15.28875,-0.460666 -19.091883,-0.0025 -8.94944,1.078238 -16.312716,3.045841 -23.157747,6.188175 -11.140282,5.114147 -18.44704,12.494537 -20.72682,20.935693 -0.421271,1.559805 -0.4664291,2.034046 -0.4755225,4.993845 -0.011045,3.595176 0.2046204,4.871338 1.3057895,7.726766 3.518887,9.124778 14.183002,17.29744 28.105011,21.538849 1.111701,0.338686 2.04828,0.642797 2.081288,0.675805 0.09239,0.0924 -0.148047,0.642079 -0.276582,0.632303 -0.06252,-0.0048 -1.133041,-0.325562 -2.37894,-0.712906 z"
       id="path1083" />
    <path
       style="fill:#10832f;fill-opacity:1;stroke:#399939;stroke-width:0.176777;stroke-opacity:1"
       d="M 40.305086,75.770642 C 34.638522,73.609165 30.040616,71.01226 26.236417,67.824634 15.19082,58.569274 13.327638,46.229163 21.38689,35.705559 c 1.214319,-1.585632 4.54866,-4.82904 6.336179,-6.16338 7.445159,-5.557634 17.270623,-9.146602 28.668696,-10.471875 3.315288,-0.385474 11.833865,-0.443209 15.114408,-0.102438 13.849966,1.438683 25.492426,6.21357 33.029717,13.546379 7.92668,7.711636 9.98959,17.060129 5.69811,25.822064 -1.38765,2.833168 -2.86816,4.877272 -5.31703,7.34111 -4.13806,4.163342 -9.451497,7.459542 -16.080409,9.975504 l -2.203437,0.836298 -0.315631,-0.389787 c -0.173597,-0.214384 -0.315632,-0.444867 -0.315632,-0.512186 0,-0.06732 0.576734,-0.307411 1.281632,-0.533538 3.147086,-1.009572 7.700721,-3.224413 10.827572,-5.266419 8.247435,-5.386027 12.796935,-12.184156 13.122105,-19.607798 0.1158,-2.643639 -0.13584,-4.517467 -0.92629,-6.89751 C 108.67705,38.374529 105.5977,34.35217 100.49755,30.468681 88.382637,21.243835 68.478257,17.539512 50.386495,21.142716 33.590991,24.487754 21.218122,33.385463 18.200357,44.288751 c -0.626389,2.263166 -0.790542,6.068818 -0.360207,8.350908 0.327672,1.737665 1.129254,4.137791 1.877187,5.62074 2.173065,4.308602 6.89492,9.08212 12.102468,12.234883 2.817686,1.70589 6.974401,3.64883 9.722718,4.544613 0.68059,0.221831 1.268101,0.429829 1.305577,0.462218 0.09875,0.08534 -0.494232,0.954832 -0.646739,0.94832 -0.07068,-0.003 -0.924003,-0.308924 -1.896275,-0.679791 z"
       id="path1087" />
    <path
       style="fill:#10832f;fill-opacity:1;stroke:#399939;stroke-width:0.176777;stroke-opacity:1"
       d=""
       id="path1095" />
    <path
       style="fill:#10832f;fill-opacity:1;stroke:#399939;stroke-width:0.176777;stroke-opacity:1"
       d="m 61.230647,95.972604 c -5.761737,-0.6272 -10.822469,-2.728445 -14.139539,-5.870819 -3.104033,-2.940557 -4.297436,-5.766344 -3.866507,-9.155271 0.150474,-1.183358 0.136816,-1.427017 -0.08931,-1.593267 -0.365412,-0.268659 -0.336327,-0.366712 0.144578,-0.487411 0.259353,-0.06509 0.591547,-0.434046 0.898365,-0.997772 1.924747,-3.536395 6.210995,-6.670583 10.97609,-8.025932 7.590594,-2.159012 16.16368,-1.560885 22.627417,1.578668 2.379837,1.15593 3.717192,2.10028 5.487395,3.87483 2.479666,2.485754 3.404971,4.633751 3.207968,7.446953 -0.352643,5.035769 -4.807679,9.551447 -11.672259,11.831143 -2.271355,0.754306 -3.988767,1.103318 -7.004047,1.42336 -2.829864,0.300362 -3.612808,0.297445 -6.570155,-0.02448 z m 9.409044,-1.142767 c 3.391295,-0.610656 6.930776,-1.969247 9.48312,-3.639993 1.253506,-0.820534 3.353864,-2.881817 4.025439,-3.950546 1.280715,-2.038106 1.799472,-4.350789 1.443343,-6.434612 -0.24342,-1.424323 -0.451557,-1.616809 -1.567341,-1.449487 l -0.79965,0.119915 -0.117478,1.804966 c -0.209474,3.218381 -0.956703,4.989448 -3.026511,7.17336 -2.619373,2.763774 -5.96776,4.498169 -10.518984,5.448618 -2.07058,0.432406 -7.063587,0.432977 -9.2246,0.0011 -5.29727,-1.058771 -9.621358,-3.613325 -11.90776,-7.034785 -1.105032,-1.653612 -1.470458,-2.761655 -1.626656,-4.932336 L 46.669047,80.079842 45.67072,79.921386 c -0.54908,-0.08715 -1.114212,-0.113987 -1.255848,-0.05964 -0.350606,0.13454 -0.532038,2.350929 -0.314463,3.841507 0.250847,1.718512 1.341216,3.776177 2.793182,5.271087 3.074298,3.165227 8.611511,5.57662 14.271145,6.214922 2.112513,0.238253 7.234841,0.04394 9.474955,-0.359429 z m -0.0044,-1.983122 c 4.641,-1.219515 8.341696,-3.594648 10.209945,-6.552808 0.978689,-1.549645 1.296236,-2.587527 1.400943,-4.57888 l 0.09062,-1.723573 h -0.523047 c -0.287675,0 -1.40076,0.158046 -2.473519,0.351213 -9.365239,1.686358 -19.769218,1.811259 -29.294036,0.351678 -1.253826,-0.192135 -2.347632,-0.349338 -2.430679,-0.349338 -0.230204,0 -0.174535,1.539364 0.103023,2.848806 0.856221,4.039406 4.43154,7.37974 9.807852,9.163236 2.77164,0.919444 3.934889,1.06658 7.880964,0.996853 3.084633,-0.05451 3.751371,-0.11919 5.22793,-0.507187 z m 0.577637,-11.882227 c 4.210406,-0.371421 9.991711,-1.249012 10.565904,-1.603883 0.714422,-0.441537 -1.260828,-3.726569 -3.27585,-5.448057 -3.8944,-3.327089 -9.850735,-4.955995 -15.91836,-4.353264 -4.885855,0.485339 -8.615339,1.993183 -11.501806,4.650221 -1.680194,1.546645 -3.441513,4.367048 -3.441513,5.5109 0,0.246688 4.107946,0.869654 8.150768,1.236057 3.591422,0.325492 11.773809,0.329751 15.420857,0.008 z M 46.718182,79.41693 c 0.09945,-0.121534 0.378152,-0.708591 0.619343,-1.30457 0.241191,-0.59598 0.757076,-1.550574 1.146411,-2.121321 0.682209,-1.000087 2.674581,-3.03977 3.566135,-3.650819 0.503961,-0.345402 0.387225,-0.568964 -0.2178,-0.417113 -1.647834,0.41358 -5.757493,4.086297 -6.816838,6.092066 -0.324558,0.614521 -0.562566,1.14094 -0.528906,1.169819 0.09582,0.08221 1.442994,0.414309 1.763127,0.434638 0.158243,0.01005 0.36908,-0.08117 0.468528,-0.2027 z m 37.437632,-0.507122 c 0.431963,-0.10877 0.784641,-0.247981 0.783729,-0.30936 -0.0062,-0.417345 -1.291309,-2.209628 -2.353964,-3.282977 -1.686847,-1.703822 -4.196795,-3.38134 -4.181704,-2.794832 0.0019,0.07292 0.685671,0.878265 1.519546,1.789654 1.061866,1.160576 1.711538,2.061002 2.168299,3.005204 0.995543,2.057948 0.803434,1.909748 2.064094,1.592311 z"
       id="path1097" />
    <path
       style="fill:#10832f;fill-opacity:1;stroke:#399939;stroke-width:0.176777;stroke-opacity:1"
       d="m 54.53561,81.041681 c 0,-0.102965 0.07955,-0.138045 0.176777,-0.07796 0.226519,0.139996 0.226519,0.265165 0,0.265165 -0.09723,0 -0.176777,-0.08425 -0.176777,-0.18721 z"
       id="path1099" />
    <path
       style="fill:#10832f;fill-opacity:1;stroke:#399939;stroke-width:0.176777;stroke-opacity:1"
       d="M 60.213197,79.804023 C 56.57225,79.597392 52.628954,79.081065 49.456012,78.395498 l -0.925345,-0.199936 0.271624,-0.525263 c 0.18565,-0.359006 0.366633,-0.496415 0.571792,-0.434123 0.614716,0.186646 4.270221,0.792167 6.664129,1.103888 3.541336,0.461132 13.240166,0.462044 16.793786,0.0016 2.302962,-0.298409 6.864,-1.072931 7.548013,-1.281747 0.206452,-0.06303 0.387242,0.07675 0.579064,0.44769 0.153392,0.296629 0.248017,0.539325 0.210277,0.539325 -0.03774,0 -1.049659,0.199804 -2.248711,0.44401 -3.141146,0.639743 -7.032215,1.120421 -10.684837,1.319939 -3.510928,0.191778 -4.538318,0.190903 -8.022607,-0.0068 z"
       id="path1101" />
    <path
       style="fill:#10832f;fill-opacity:1;stroke:#399939;stroke-width:0.176777;stroke-opacity:1"
       d="m 46.267585,77.671397 c -0.575802,-0.166147 -0.576919,-0.168664 -0.265165,-0.59722 0.317425,-0.436351 0.831591,-0.555688 1.250197,-0.290167 0.18381,0.11659 0.186987,0.240337 0.01582,0.616011 -0.117809,0.258562 -0.261091,0.462938 -0.318405,0.454169 -0.05731,-0.0088 -0.364415,-0.09103 -0.682447,-0.182793 z"
       id="path1105" />
    <path
       style="fill:#10832f;fill-opacity:1;stroke:#399939;stroke-width:0.176777;stroke-opacity:1"
       d=""
       id="path1107" />
    <path
       style="fill:#10832f;fill-opacity:1;stroke:#399939;stroke-width:0.176777;stroke-opacity:1"
       d="m 44.015727,76.983548 c -0.07306,-0.11821 0.03188,-0.371242 0.240471,-0.579832 0.486537,-0.486537 0.587205,-0.340531 0.198779,0.288303 -0.207579,0.336057 -0.352348,0.432139 -0.43925,0.291529 z"
       id="path1109" />
    <path
       style="fill:#10832f;fill-opacity:1;stroke:#399939;stroke-width:0.176777;stroke-opacity:1"
       d=""
       id="path1111" />
    <path
       style="fill:#10832f;fill-opacity:1;stroke:#399939;stroke-width:0.176777;stroke-opacity:1"
       d="M 82.484952,77.221697 C 82.25238,76.711257 82.3584,76.45592 82.802916,76.45592 c 0.289177,0 0.900848,0.507839 0.900848,0.747927 0,0.05575 -0.229256,0.181289 -0.509459,0.278969 -0.454317,0.158375 -0.531096,0.130112 -0.709353,-0.261119 z"
       id="path1113" />
    <path
       style="fill:#10832f;fill-opacity:1;stroke:#399939;stroke-width:0.176777;stroke-opacity:1"
       d=""
       id="path1115" />
    <path
       style="fill:#10832f;fill-opacity:1;stroke:#399939;stroke-width:0.176777;stroke-opacity:1"
       d="m 46.530642,88.071043 c -0.04831,-0.125904 0.214842,-0.50383 0.584791,-0.839836 0.623125,-0.565952 0.687327,-0.587391 0.872259,-0.291268 0.166245,0.2662 0.10651,0.406634 -0.357234,0.839835 -0.599665,0.560171 -0.960008,0.655602 -1.099816,0.291269 z"
       id="path1119" />
    <path
       style="fill:#10832f;fill-opacity:1;stroke:#399939;stroke-width:0.176777;stroke-opacity:1"
       d="m 61.783454,95.88944 c -7.679629,-0.849874 -13.844692,-4.010853 -16.891427,-8.660651 -1.217708,-1.858412 -1.517895,-2.995381 -1.526333,-5.781034 -0.0068,-2.259744 0.01223,-2.388786 0.419826,-2.839885 0.234848,-0.259914 0.733407,-0.949868 1.107907,-1.533232 2.042655,-3.181862 6.379493,-6.041891 10.971446,-7.235374 3.020453,-0.785039 5.198786,-1.04236 8.747009,-1.033263 4.872729,0.01249 8.815282,0.815516 12.594559,2.56527 1.356215,0.627909 1.508563,0.74317 1.240948,0.938856 -0.276724,0.202346 -0.205478,0.3355 0.766834,1.433131 1.585387,1.789726 2.325873,2.814173 2.996047,4.14496 0.330445,0.656176 0.666192,1.233456 0.746107,1.282846 0.170291,0.105246 -0.04867,2.951306 -0.335099,4.355642 -0.705092,3.456986 -4.110951,6.960024 -8.601217,8.846635 -4.87126,2.046685 -11.586827,2.268068 -16.663645,0.549326 -3.147162,-1.065461 -5.482857,-2.51116 -7.50616,-4.646004 -1.956696,-2.064565 -2.90465,-4.289956 -2.912974,-6.838423 -0.0017,-0.516834 -0.07889,-1.081365 -0.171553,-1.254513 -0.129272,-0.241548 0.06173,-0.754365 0.820731,-2.203506 1.018655,-1.944905 2.056233,-3.256546 3.792839,-4.79467 1.140631,-1.010264 1.321963,-1.294635 0.923131,-1.447681 -1.141951,-0.438208 -6.324181,4.011669 -7.596942,6.523343 -0.459506,0.906791 -0.429211,1.100301 0.195792,1.250634 0.265039,0.06375 0.230751,0.09018 -0.136958,0.105547 -0.667573,0.02791 -0.835314,0.545331 -0.835314,2.576656 0,2.118229 0.430493,3.541397 1.600282,5.290376 1.472232,2.20117 3.490296,3.775946 6.942721,5.417687 2.120286,1.008266 4.653789,1.78824 7.181328,2.210874 2.559239,0.427936 9.189258,0.280902 11.704088,-0.259563 8.731114,-1.876407 14.467658,-6.911866 14.467658,-12.69951 0,-1.757811 -0.297692,-2.684772 -0.953953,-2.970449 -0.30545,-0.132966 -0.416144,-0.2419 -0.249723,-0.245752 0.708602,-0.0164 0.511447,-0.67979 -0.656936,-2.210457 -0.848026,-1.110973 -0.671538,-1.220079 0.242965,-0.150202 1.963132,2.296668 2.549053,4.794857 1.805992,7.700201 -0.562058,2.19762 -1.310939,3.447173 -3.240616,5.40716 -2.417495,2.455467 -6.638368,4.606419 -10.823418,5.515601 -3.03308,0.658923 -7.626606,0.97044 -10.165942,0.689424 z m 5.303301,-2.453756 c 2.330766,-0.131103 3.004087,-0.238546 4.507806,-0.71932 3.630797,-1.160847 5.970194,-2.523279 7.997766,-4.657785 2.012195,-2.118317 2.859031,-4.276589 2.870499,-7.315824 l 0.0035,-0.928078 -0.751301,-0.02407 c -0.413216,-0.01324 -0.578092,-0.05779 -0.366391,-0.099 1.068995,-0.208092 0.924591,-1.200122 -0.480492,-3.300896 C 77.926037,71.9919 72.029539,69.344965 65.14221,69.33135 c -7.26988,-0.01437 -12.910816,2.458773 -16.086711,7.052867 -0.976776,1.412956 -1.673676,2.959926 -1.517166,3.367785 0.05054,0.131701 0.233596,0.247386 0.406795,0.257078 0.205706,0.01151 0.161654,0.05993 -0.127034,0.139627 -0.364998,0.100763 -0.451148,0.246304 -0.494818,0.835932 -0.08152,1.100669 0.425045,3.20645 1.10063,4.575286 2.227818,4.513899 8.44745,7.786831 15.215702,8.006897 0.388908,0.01264 1.940124,-0.04636 3.447145,-0.131133 z"
       id="path1121" />
    <path
       style="fill:#10832f;fill-opacity:1;stroke:#399939;stroke-width:0.176777;stroke-opacity:1"
       d="m 43.952187,88.946606 c -0.256472,-0.30903 -0.08019,-0.469871 0.514969,-0.469871 0.592974,0 1.028914,0.433851 0.600955,0.598074 -0.460765,0.176812 -0.905155,0.125758 -1.115924,-0.128203 z"
       id="path1123" />
    <path
       style="fill:#10832f;fill-opacity:1;stroke:#399939;stroke-width:0.176777;stroke-opacity:1"
       d="m 39.480665,89.021413 c -3.191308,-1.020611 -4.212283,-3.170563 -2.37713,-5.005717 0.537182,-0.537181 1.8407,-1.204166 2.816973,-1.441389 0.44262,-0.107552 0.492793,-0.07722 0.441942,0.267154 -0.04319,0.292488 -0.287531,0.466486 -0.988861,0.704177 -1.737845,0.58898 -2.656276,1.590299 -2.4249,2.643745 0.240179,1.09353 2.071752,2.164444 4.111921,2.404226 0.656469,0.07716 0.991175,0.208935 1.114114,0.438649 0.161179,0.301166 0.09836,0.327573 -0.758564,0.318854 -0.513863,-0.0052 -1.384836,-0.153593 -1.935495,-0.329699 z"
       id="path1125" />
    <path
       style="fill:#10832f;fill-opacity:1;stroke:#399939;stroke-width:0.176777;stroke-opacity:1"
       d="m 45.696775,83.697145 c -0.437522,-0.178712 -0.934706,-0.367159 -1.104854,-0.418772 -0.319312,-0.09686 -0.44192,-0.812045 -0.139214,-0.812045 0.09358,0 0.610652,0.164814 1.149049,0.366254 0.81803,0.306065 0.978903,0.436796 0.978903,0.795495 0,0.236083 -0.01989,0.421311 -0.04419,0.41162 -0.02431,-0.0097 -0.402167,-0.16384 -0.83969,-0.342552 z"
       id="path1127" />
    <path
       style="fill:#10832f;fill-opacity:1;stroke:#399939;stroke-width:0.176777;stroke-opacity:1"
       d="m 41.807688,82.643104 c 0,-0.492042 0.806432,-0.492042 0.935104,0 0.07679,0.293663 0.0054,0.353554 -0.421324,0.353554 -0.395929,0 -0.51378,-0.0811 -0.51378,-0.353554 z"
       id="path1129" />
    <path
       style="fill:#10832f;fill-opacity:1;stroke:#399939;stroke-width:0.176777;stroke-opacity:1"
       d="m 83.231133,83.631608 c 0.06549,-0.170672 0.119078,-0.374846 0.119078,-0.453719 0,-0.183995 0.426353,-0.346926 1.374983,-0.525449 0.71735,-0.134998 0.75033,-0.122982 0.640952,0.233531 -0.139507,0.454713 -0.02559,0.376721 -0.866886,0.593484 -0.388909,0.100203 -0.860129,0.24525 -1.047156,0.322327 -0.276945,0.114133 -0.317952,0.08255 -0.220971,-0.170174 z"
       id="path1131" />
    <path
       style="fill:#10832f;fill-opacity:1;stroke:#399939;stroke-width:0.176777;stroke-opacity:1"
       d="m 86.546036,89.312439 c 0.115985,-0.254558 0.504882,-0.520614 1.037496,-0.709782 0.531233,-0.188678 1.10029,-0.577456 1.511588,-1.032714 0.61323,-0.678772 0.653736,-0.791375 0.575937,-1.60104 -0.06443,-0.670549 -0.211444,-1.002732 -0.639003,-1.443861 -0.305425,-0.315119 -0.555319,-0.758338 -0.555319,-0.984932 v -0.411987 l 0.574524,0.439001 c 1.289388,0.985235 1.760558,2.58863 1.120637,3.813536 -0.518044,0.991614 -1.850308,1.882992 -3.327799,2.226529 -0.452881,0.105301 -0.471808,0.08658 -0.298061,-0.29475 z"
       id="path1133" />
    <path
       style="fill:#10832f;fill-opacity:1;stroke:#399939;stroke-width:0.176777;stroke-opacity:1"
       d=""
       id="path1135" />
    <path
       style="fill:#10832f;fill-opacity:1;stroke:#399939;stroke-width:0.176777;stroke-opacity:1"
       d="m 84.176703,89.421078 c -0.159322,-0.159322 0.221161,-0.590789 0.520979,-0.590789 0.299948,0 0.313449,0.212912 0.03139,0.494974 -0.239741,0.239741 -0.383503,0.264678 -0.552366,0.09581 z"
       id="path1137" />
    <path
       style="fill:#10832f;fill-opacity:1;stroke:#399939;stroke-width:0.176777;stroke-opacity:1"
       d="m 82.042633,88.142228 c -0.357235,-0.372873 -0.461927,-0.618965 -0.377066,-0.886339 0.114124,-0.359573 0.447207,-0.522821 0.447207,-0.219181 0,0.08303 0.205102,0.372272 0.455782,0.64276 0.387187,0.417782 0.419123,0.528454 0.212202,0.735375 -0.206921,0.206921 -0.318007,0.165893 -0.738125,-0.272615 z"
       id="path1139" />
    <path
       style="fill:#10832f;fill-opacity:1;stroke:#399939;stroke-width:0.176777;stroke-opacity:1"
       d="m 60.546018,98.356977 c -6.52995,-0.739575 -12.425205,-3.346443 -16.005482,-7.077585 -3.177434,-3.311325 -4.350955,-6.803845 -3.549675,-10.564203 1.120461,-5.258257 6.376775,-9.892412 13.721526,-12.097391 3.534814,-1.061192 5.05489,-1.257968 9.722718,-1.258621 4.797272,-6.72e-4 6.868835,0.294495 10.448408,1.488737 3.815588,1.272984 6.533677,2.850769 8.971429,5.2077 3.473807,3.358633 4.485841,5.894779 4.109535,10.298436 -0.116605,1.364546 -0.251046,1.856473 -0.845461,3.093592 -2.754239,5.732219 -10.088931,9.945048 -19.008828,10.918103 -1.97057,0.214966 -5.62616,0.210729 -7.56417,-0.0088 z m 8.043339,-0.885191 c 2.150123,-0.240132 5.556049,-1.070436 7.552162,-1.841082 6.446042,-2.488648 10.63233,-6.837457 11.078516,-11.508608 0.416988,-4.365465 -1.309113,-7.842059 -5.428494,-10.933705 -6.909549,-5.1857 -18.39694,-6.640845 -27.786261,-3.519775 -14.478702,4.812814 -16.80207,17.41205 -4.508124,24.446797 5.203823,2.977692 11.916524,4.157772 19.092201,3.356373 z"
       id="path1141" />
    <path
       style="fill:#10832f;fill-opacity:1;stroke:#399939;stroke-width:0.176777;stroke-opacity:1"
       d="m 60.525566,98.186402 c -6.03182,-0.639794 -12.068712,-3.277138 -15.591697,-6.811563 -3.454344,-3.465561 -4.653591,-7.042898 -3.661461,-10.92209 1.547929,-6.052343 8.358024,-11.019355 17.240678,-12.574663 2.366345,-0.414335 9.284738,-0.426015 11.75565,-0.01985 6.202838,1.019623 11.810864,4.015585 15.05256,8.041492 1.949992,2.421721 2.517447,4.038093 2.491492,7.096927 -0.02149,2.532312 -0.393158,3.825629 -1.657316,5.767039 -4.338845,6.6633 -14.931175,10.557518 -25.629906,9.422705 z m 10.392276,-0.946706 c 1.183439,-0.248324 2.814204,-0.658914 3.623922,-0.912423 6.839719,-2.141393 11.757075,-6.534124 12.70433,-11.348926 0.317545,-1.61405 0.141326,-4.084228 -0.402118,-5.636751 -1.910153,-5.456965 -8.884515,-9.881621 -17.50836,-11.107605 -2.367124,-0.336515 -7.458436,-0.333001 -9.849461,0.0068 -9.126432,1.296997 -16.20723,6.124507 -17.772496,12.11684 -0.439706,1.683333 -0.293783,4.474075 0.311568,5.958681 0.758577,1.860389 1.56972,3.062828 3.141218,4.656539 3.655487,3.707157 8.877449,5.953202 15.733126,6.767056 0.340295,0.0404 2.249483,0.04596 4.242641,0.01237 3.047176,-0.05136 3.966365,-0.132936 5.77563,-0.512578 z"
       id="path1143" />
    <path
       style="fill:#10832f;fill-opacity:1;stroke:#399939;stroke-width:0.176777;stroke-opacity:1"
       d="m 87.19484,83.215368 c 0.11932,-1.557482 0.221235,-1.635895 0.221235,-0.170218 0,0.642444 -0.07031,1.211531 -0.156239,1.26464 -0.08789,0.05432 -0.116323,-0.424461 -0.065,-1.094422 z"
       id="path1145" />
    <path
       style="fill:#10832f;fill-opacity:1;stroke:#399939;stroke-width:0.176777;stroke-opacity:1"
       d="m 87.828145,84.823759 c -0.0808,-0.178475 -0.10713,-1.00067 -0.05852,-1.827101 l 0.08839,-1.502602 0.129954,1.755664 c 0.13312,1.798423 0.09806,2.143689 -0.159826,1.574039 z"
       id="path1147" />
    <path
       style="fill:#10832f;fill-opacity:1;stroke:#399939;stroke-width:0.176777;stroke-opacity:1"
       d="m 86.947167,85.02959 c 0.06131,-0.388909 0.117381,-1.502602 0.124614,-2.474874 0.0094,-1.257748 0.0599,-1.651331 0.175182,-1.364191 0.249081,0.620393 0.03847,4.128032 -0.264787,4.409988 -0.08056,0.0749 -0.09631,-0.182015 -0.03501,-0.570923 z"
       id="path1149" />
    <path
       style="fill:#10832f;fill-opacity:1;stroke:#399939;stroke-width:0.176777;stroke-opacity:1"
       d="m 87.103534,83.350211 c 0,-0.340295 0.03638,-0.479507 0.08084,-0.309359 0.04447,0.170147 0.04447,0.448571 0,0.618718 -0.04446,0.170148 -0.08084,0.03094 -0.08084,-0.309359 z"
       id="path1151" />
    <path
       style="fill:#10832f;fill-opacity:1;stroke:#399939;stroke-width:0.176777;stroke-opacity:1"
       d="m 86.296489,83.055583 c -0.06482,-0.06482 -0.117851,-0.200052 -0.117851,-0.30052 0,-0.110769 0.08234,-0.100332 0.209186,0.02652 0.115052,0.115053 0.168085,0.250287 0.117851,0.300521 -0.05023,0.05023 -0.144368,0.0383 -0.209186,-0.02652 z"
       id="path1153" />
    <path
       style="fill:#10832f;fill-opacity:1;stroke:#399939;stroke-width:0.176777;stroke-opacity:1"
       d=""
       id="path1155" />
    <path
       style="fill:#10832f;fill-opacity:1;stroke:#399939;stroke-width:0.176777;stroke-opacity:1"
       d=""
       id="path1157" />
    <path
       style="fill:#10832f;fill-opacity:1;stroke:#399939;stroke-width:0.176777;stroke-opacity:1"
       d=""
       id="path1159" />
  </g>
</svg>
