<?xml version="1.0" encoding="UTF-8" standalone="no"?>
<!-- Created with Inkscape (http://www.inkscape.org/) -->

<svg
   version="1.1"
   id="svg9"
   width="180"
   height="111"
   viewBox="0 0 180 111"
   sodipodi:docname="imagem de simbolo OPM retangulo vermelho.svg"
   inkscape:version="1.2.1 (9c6d41e410, 2022-07-14)"
   inkscape:export-filename="imagem de simbolo OPM.png"
   inkscape:export-xdpi="96"
   inkscape:export-ydpi="96"
   xmlns:inkscape="http://www.inkscape.org/namespaces/inkscape"
   xmlns:sodipodi="http://sodipodi.sourceforge.net/DTD/sodipodi-0.dtd"
   xmlns="http://www.w3.org/2000/svg"
   xmlns:svg="http://www.w3.org/2000/svg">
  <defs
     id="defs13" />
  <sodipodi:namedview
     id="namedview11"
     pagecolor="#ffffff"
     bordercolor="#000000"
     borderopacity="0.25"
     inkscape:showpageshadow="2"
     inkscape:pageopacity="0.0"
     inkscape:pagecheckerboard="0"
     inkscape:deskcolor="#d1d1d1"
     showgrid="false"
     inkscape:zoom="5.6568543"
     inkscape:cx="74.157823"
     inkscape:cy="63.286056"
     inkscape:window-width="1920"
     inkscape:window-height="1017"
     inkscape:window-x="-8"
     inkscape:window-y="-8"
     inkscape:window-maximized="1"
     inkscape:current-layer="g15" />
  <g
     inkscape:groupmode="layer"
     inkscape:label="Image"
     id="g15">
    <rect
       style="fill:#613232;fill-opacity:1;stroke:#35379d;stroke-opacity:1"
       id="rect29652"
       width="179.42834"
       height="111.19254"
       x="0"
       y="0.53033006" />
    <path
       style="fill:#6a1083;fill-opacity:1;stroke:#873988;stroke-width:1.01952;stroke-opacity:1"
       d="m 92.594102,44.586797 c -2.966304,2.266823 -3.183276,5.664477 -2.900804,8.480118 0.87111,8.683161 0.981227,20.126403 1.13797,28.575138 0.08661,4.669126 0.223544,9.341815 0.649627,13.9999 0.145282,1.58814 0.649627,4.749967 0.649627,4.749967 v 2.25 c 0,0 3.323287,-4.082197 3.281441,-8.20514 -0.0131,-1.29364 -1.710106,-7.070406 -1.710106,-7.070406 0,0 1.367905,-10.244198 1.524098,-16.07684 0.120658,-4.505948 0.152673,-15.397303 0.152673,-15.397303 0,0 -0.625494,-11.10689 -1.027174,-10.514855 -0.651487,0.960284 -0.758543,-1.553868 -1.757352,-0.790579 z"
       id="path231"
       sodipodi:nodetypes="ssssccscscss" />
    <path
       style="fill:#6a1083;fill-opacity:1;stroke:#6a146c;stroke-width:1.01411;stroke-opacity:1"
       d="m 89.687317,56.392562 c -3.806419,4.139784 -9.342709,7.337906 -15.101836,9.751702 -4.53415,1.900362 -9.726216,2.731713 -14.780511,3.500605 -3.483118,0.529862 -10.603411,0.750121 -10.603411,0.750121 l -3.715786,-0.563641 9.178149,-1.936788 c 0,0 9.850044,-1.781295 14.13788,-3.750648 4.11366,-1.889356 7.528982,-4.656426 10.603412,-7.501307 4.245591,-3.928598 8.002932,-8.284811 10.603411,-13.002251 0.696374,-1.26328 1.285252,-4.000695 1.285252,-4.000695 0,0 1.818372,3.639699 2.570535,5.500955 0.997619,2.468619 2.01056,4.366207 3.789846,6.552433 1.951825,2.398211 4.229162,4.733615 7.134872,6.449822 2.88687,1.705086 5.82262,3.389715 8.99684,4.750823 3.99092,1.711323 8.18341,3.189661 12.53131,4.250737 4.37482,1.067647 13.47636,4.32552 10.76823,3.122293 -0.59422,-0.264003 -0.34421,0.313236 -1.64107,0.31322 -5.6479,-6.7e-5 -9.05508,-1.618272 -14.58951,-2.685382 -5.17413,-0.997634 -10.1414,-2.707667 -14.78054,-4.750824 -3.59803,-1.584638 -7.420922,-3.212429 -9.960772,-5.750999 -1.209681,-1.209081 -2.249206,-4.250737 -2.249206,-4.250737 l -1.606571,-2.00035 c 0,0 -1.169945,3.727679 -2.570524,5.250911 z"
       id="path233"
       sodipodi:nodetypes="ssscccssscssssssssssccs" />
    <path
       style="fill:#6a1083;fill-opacity:1;stroke:#e323e3;stroke-width:0.611715;stroke-dasharray:none;stroke-opacity:1"
       d="m 77.838774,23.892467 c 0.399602,-0.497685 -1.988228,-0.484781 -4.22256,-0.499996 0,0 -3.280342,5.481659 -3.281449,8.408056 -9.93e-4,2.641851 0.731309,5.451686 2.956637,7.591828 2.158509,2.075883 5.536133,3.314861 8.769934,4.249969 2.900355,0.838688 6.161472,1.070185 9.180794,1.117525 4.097742,0.06425 7.779933,-0.238858 11.60719,-1.367523 2.90954,-0.858024 5.89948,-1.98909 7.3513,-3.367506 3.26265,-3.097655 3.03698,-4.039041 3.36753,-6.382423 0.3801,-2.694809 -0.21924,-5.650092 -1.70888,-7.999942 -0.6993,-1.103125 -3.16333,-2.499984 -3.16333,-2.499984 0,0 -2.3318,0.783518 -2.1543,1.893169 0.12195,0.762533 1.84041,2.127483 2.1543,2.856797 0.98969,2.299505 0.60785,6.714256 -1.67679,9.305454 -1.87305,2.124383 -5.55445,2.954154 -8.703293,3.801271 -1.862448,0.501042 -3.818821,0.456141 -5.846594,0.709411 -3.099323,0.387104 -5.325956,0.0518 -7.776103,-0.632464 -2.606159,-0.727837 -5.13182,-1.927219 -6.907115,-3.566207 -1.352941,-1.249061 -2.275835,-2.811004 -2.526366,-4.474319 -0.274,-1.819133 0.725957,-2.603981 1.213246,-5.395858 0.373843,-2.141913 1.510519,-3.774271 1.569508,-3.747258 z"
       id="path235"
       sodipodi:nodetypes="ccasssssaacssaasaaascc" />
    <ellipse
       style="fill:#000000;fill-opacity:1;stroke:#000000;stroke-width:1.01952;stroke-opacity:1"
       id="path351"
       cx="92.45533"
       cy="16.642517"
       rx="9.2571516"
       ry="5.4999609" />
    <ellipse
       style="fill:#000000;stroke:#c04ece;stroke-width:1.01952;stroke-opacity:1"
       id="path353"
       cx="66.389145"
       cy="91.141998"
       rx="6.7398572"
       ry="3.3749759" />
    <ellipse
       style="fill:#000000;stroke:#c04ece;stroke-width:1.01952;stroke-opacity:1"
       id="path355"
       cx="116.41026"
       cy="91.391968"
       rx="4.9533887"
       ry="3.3749759" />
    <ellipse
       style="fill:none;fill-opacity:1;stroke:#000000;stroke-width:0;stroke-dasharray:none;stroke-opacity:1"
       id="path3467"
       cx="143.20726"
       cy="23.704967"
       rx="3.9789519"
       ry="9.3124323" />
    <ellipse
       style="fill:none;fill-opacity:1;stroke:#8c3999;stroke-width:1.01952;stroke-dasharray:none;stroke-opacity:1"
       id="path3483"
       cx="90.850594"
       cy="51.669239"
       rx="62.701828"
       ry="34.913143" />
    <ellipse
       style="fill:none;fill-opacity:1;stroke:#ce00d3;stroke-width:1.42734;stroke-dasharray:none;stroke-opacity:1"
       id="path3499"
       cx="91.769295"
       cy="52.553123"
       rx="54.663136"
       ry="31.73119" />
    <ellipse
       style="fill:none;fill-opacity:1;stroke:#8c3999;stroke-width:1.42734;stroke-dasharray:none;stroke-opacity:1"
       id="path10705"
       cx="92.228668"
       cy="87.289513"
       rx="24.575441"
       ry="14.318809" />
    <ellipse
       style="fill:none;fill-opacity:1;stroke:#8c3999;stroke-width:1.42734;stroke-dasharray:none;stroke-opacity:1"
       id="path10709"
       cx="92.343491"
       cy="86.494003"
       rx="20.556095"
       ry="13.169771" />
    <ellipse
       style="fill:none;fill-opacity:1;stroke:#8c3999;stroke-width:1.42734;stroke-dasharray:none;stroke-opacity:1"
       id="path10717"
       cx="91.789719"
       cy="87.994637"
       rx="26.911768"
       ry="16.127811" />
  </g>
</svg>
