<?xml version="1.0" encoding="UTF-8" standalone="no"?>
<!-- Created with Inkscape (http://www.inkscape.org/) -->

<svg
   version="1.1"
   id="svg9"
   width="920"
   height="748"
   viewBox="0 0 920 748"
   sodipodi:docname="cabeça sonic finalizado.svg"
   inkscape:version="1.2.1 (9c6d41e410, 2022-07-14)"
   xmlns:inkscape="http://www.inkscape.org/namespaces/inkscape"
   xmlns:sodipodi="http://sodipodi.sourceforge.net/DTD/sodipodi-0.dtd"
   xmlns="http://www.w3.org/2000/svg"
   xmlns:svg="http://www.w3.org/2000/svg">
  <defs
     id="defs13" />
  <sodipodi:namedview
     id="namedview11"
     pagecolor="#ffffff"
     bordercolor="#000000"
     borderopacity="0.25"
     inkscape:showpageshadow="2"
     inkscape:pageopacity="0.0"
     inkscape:pagecheckerboard="0"
     inkscape:deskcolor="#d1d1d1"
     showgrid="false"
     inkscape:zoom="1.0882353"
     inkscape:cx="447.05405"
     inkscape:cy="377.21622"
     inkscape:window-width="1377"
     inkscape:window-height="1040"
     inkscape:window-x="56"
     inkscape:window-y="13"
     inkscape:window-maximized="0"
     inkscape:current-layer="g15" />
  <g
     inkscape:groupmode="layer"
     inkscape:label="Image"
     id="g15">
    <path
       style="fill:#2014ff;fill-opacity:1;stroke:#000000;stroke-width:2.7;stroke-dasharray:none;stroke-opacity:1"
       d="m 128.64865,249.94595 49.62162,-74.43244 c 0,0 47.80766,-54.86768 76.27027,-77.189186 24.42947,-19.158558 51.93149,-34.403218 79.94595,-47.783783 25.62158,-12.237654 52.64921,-21.58783 79.94594,-29.405406 14.43795,-4.134919 29.3637,-6.531251 44.10811,-9.189189 1.08689,-0.19593 3.74706,1.348938 2.75676,1.837838 -22.37493,11.046291 -57.45305,26.83985 -60.64865,29.405405 -32.21932,25.866979 -11.02703,15.927928 18.37838,0 l 56.05405,-18.378378 41.14779,-9.668073 c 0,0 35.63687,-5.009048 53.50086,-4.115711 17.40275,0.870271 51.45946,9.189189 51.45946,9.189189 24.24175,4.328884 46.12577,13.174507 68.00001,28.486487 l 9.18918,6.432432 -77.18919,38.594595 -34,22.05405 c -4.94511,7.38228 -52.95989,16.80954 17.45946,19.2973 69.78039,2.46518 111.675,21.62972 157.13513,37.67568 9.47396,3.344 39.20521,17.05335 56.97298,31.24324 0,0 37.48489,33.33135 52.37838,53.2973 17.78874,23.84727 43.18919,78.10811 43.18919,78.10811 28.55648,8.60984 -58.63727,-18.96594 -124.97297,-22.05405 -10.54272,-0.49079 -22.04801,1.03485 -34.13227,2.78063 -11.86904,1.71468 -18.2951,2.25164 -37.54341,4.57071 -42.26265,5.09187 -50.86848,-3.41894 -3.67568,25.72974 34.43624,21.26958 58.93225,50.80529 67.08108,60.64865 13.58948,16.41538 19.10054,31.34759 23.8919,45.02702 11.63909,33.22985 20.0342,70.51193 11.94594,53.29729 -11.21206,-23.8632 -23.96118,-38.9477 -47.78378,-58.81081 l -22.05406,-18.37838 c -12.69286,-10.12956 -20.47413,-19.98307 -29.40541,-20.21622 0,0 50.82665,56.85734 70.75676,89.13515 15.26335,24.71976 36.75676,79.02702 36.75676,79.02702 4.82297,27.35732 15.8527,53.16295 11.94595,82.7027 -3.97788,21.18624 8.9691,95.26267 -12.86487,60.64865 l -77.18919,-52.37837 c 0,0 -54.02495,-36.8095 -82.7027,-52.37838 -25.17509,-13.66732 -51.62215,-24.92569 -78.10811,-35.83784 -18.09897,-7.45673 -36.14693,-15.45981 -55.13513,-20.21622 -17.10219,-4.28398 -52.37838,-7.35135 -52.37838,-7.35135 0,0 -37.5468,44.0973 -59.72973,62.48649 -16.87521,13.9892 -34.6672,27.99348 -55.13514,35.83784 -14.7654,5.65886 -30.13455,7.15218 -45.94594,7.35135 -18.84319,0.23736 -37.89079,-2.32956 -56.05405,-7.35135 -17.2178,-4.76039 -36.64369,-13.81164 -56.05406,-27.56757 -11.96132,-8.47686 -5.73196,-16.56721 -13.78379,-25.72974 -13.92315,-15.84375 -17.14801,-23.02601 -25.72972,-36.75675 0,0 -23.6836,-39.74483 -36.75676,-58.81081 -6.92876,-10.10495 -24.81081,-27.56756 -24.81081,-27.56756 C 90.914723,456.0901 92.103695,437.0991 95.567568,419.94595 L 104.75676,388.7027 65.243243,342.75676 c -17.395396,-22.9326 -37.332889,-44.67575 -45.945946,-69.83784 -8.250649,-22.26077 3.50471,-28.15299 22.054055,-28.48649 z"
       id="path252"
       sodipodi:nodetypes="ccsssssscccssscccsscssssssssscccsccccssscssssssssccccccc" />
    <g
       id="path3407"
       transform="matrix(0.96953213,-0.24496417,0.20241373,0.9793001,0,0)">
      <path
         style="color:#000000;fill:#f7b500;stroke-width:2.93697;-inkscape-stroke:none"
         d="M 334.3993,653.52802 A 126.31541,47.847019 0 0 1 208.08389,701.37503 126.31541,47.847019 0 0 1 81.768486,653.52802 126.31541,47.847019 0 0 1 208.08389,605.681 126.31541,47.847019 0 0 1 334.3993,653.52802 Z"
         id="path3562" />
      <path
         style="color:#000000;fill:#f7b500;fill-opacity:1;-inkscape-stroke:none"
         d="m 208.08398,604.21289 c -35.03131,0 -66.74793,5.36313 -89.83789,14.10938 -11.54498,4.37312 -20.941287,9.58657 -27.531246,15.48828 -6.58996,5.9017 -10.414063,12.58671 -10.414063,19.71679 31.165879,69.23523 201.033829,43.0704 245.152339,19.71875 6.58996,-5.9017 10.41407,-12.58867 10.41407,-19.71875 0,-7.13008 -3.82411,-13.81509 -10.41407,-19.71679 -6.58995,-5.90171 -15.98627,-11.11516 -27.53125,-15.48828 -23.08995,-8.74625 -54.80658,-14.10938 -89.83789,-14.10938 z m 0,2.9375 c 34.7307,0 66.17165,5.34702 88.79883,13.91797 11.31359,4.28547 20.41553,9.38273 26.60938,14.92969 6.19384,5.54696 9.43945,11.4468 9.43945,17.52929 0,6.0825 -3.24561,11.98429 -9.43945,17.53125 -6.19385,5.54696 -12.52966,11.26699 -21.76338,18.95691 -18.33972,15.27348 -59.40705,30.41099 -94.13775,30.41099 -34.73069,0 -98.67463,-33.25137 -88.3059,-34.43821 11.78652,-1.34913 -20.417489,-9.38273 -26.611332,-14.92969 -6.193843,-5.54696 -9.4375,-11.44875 -9.4375,-17.53125 0,-6.08249 3.243657,-11.98233 9.4375,-17.52929 6.193843,-5.54696 15.297742,-10.64422 26.611332,-14.92969 22.62718,-8.57095 54.06813,-13.91797 88.79882,-13.91797 z"
         id="path3564"
         sodipodi:nodetypes="sssccsssssssssssssssss" />
    </g>
    <path
       style="fill:#fffdff;stroke:#000000;stroke-width:2.7;stroke-dasharray:none;stroke-opacity:1;fill-opacity:1"
       d="m 296.81081,493.45946 c 6.35543,-25.42342 9.91341,-54.52252 21.13514,-82.7027 9.27835,-16.89143 11.43872,-30.22387 29.4054,-51.45946 13.1818,-12.91798 25.10646,-19.5503 35.83784,-20.21622 21.25086,-0.0579 24.7953,8.73748 32.16216,15.62162 7.1529,10.18143 14.5141,19.32142 19.2973,41.35135 3.22742,14.86448 6.36709,42.16189 6.43243,63.40541 0.0398,12.92301 -3.67567,38.59459 -3.67567,38.59459 -14.3964,3.02536 -28.79279,6.47575 -43.18919,23.8919 l -26.64865,23.89189 c -13.66302,10.28488 -28.91881,14.19865 -45.02703,14.7027 l -30.32432,3.67568 c -10.10811,0.10447 -22.05406,-2.64061 -32.16217,15.62162 L 250.86486,578 c 3.14097,-9.57234 0.83071,-23.20038 -8.27026,-30.32433 14.50452,2.81324 36.41037,2.60025 44.1081,-20.21621 z"
       id="path1060"
       sodipodi:nodetypes="cccccsscccccccccc" />
    <ellipse
       style="fill:#51fd2b;fill-opacity:1;stroke:#000000;stroke-width:3.02136;stroke-dasharray:none;stroke-opacity:1"
       id="path1118"
       cx="310.78323"
       cy="495.86368"
       rx="21.343266"
       ry="46.321533"
       transform="matrix(0.99599733,-0.08938294,0.11980447,0.99279751,0,0)" />
    <ellipse
       style="fill:#100000;stroke:#000000;stroke-width:2.65155;stroke-dasharray:none;stroke-opacity:1;fill-opacity:1"
       id="path1904"
       cx="227.55363"
       cy="574.14215"
       rx="22.997204"
       ry="12.429627"
       transform="matrix(0.999996,0.00282835,-0.00261028,0.99999659,0,0)" />
    <path
       style="fill:#fffeff;stroke:#000000;stroke-width:2.7;stroke-dasharray:none;stroke-opacity:1;fill-opacity:1"
       d="m 226.97297,600.97297 -22.05405,1.83784 -33.08108,-39.51351 c -18.22559,-17.58184 -28.93066,-38.17188 -34.91892,-60.64865 -5.19002,-13.78378 -27.74113,-42.38088 -12.86487,-41.35135 11.71691,0.81089 28.32841,12.07934 39.51352,18.37838 0,0 28.70055,18.1829 33.99999,33.08108 7.57007,21.28154 4.2883,16.94937 7.35136,25.72973 l 19.2973,24.8108 c 0,0 -10.44814,2.09051 -15.62162,2.75676 -1.54907,0.19949 -5.51352,4.5946 -5.51352,4.5946 -1.41732,7.35135 -1.82123,13.78378 11.02703,21.13513 z"
       id="path1058"
       sodipodi:nodetypes="ccccsssccsccc" />
    <ellipse
       style="fill:#80fd2b;fill-opacity:1;stroke:#000000;stroke-width:2.77691;stroke-dasharray:none;stroke-opacity:1"
       id="path1118-4"
       cx="-78.196716"
       cy="558.67841"
       rx="19.306549"
       ry="43.257439"
       transform="matrix(0.92860689,-0.371065,0.45811392,0.88889349,0,0)" />
    <ellipse
       style="fill:#000000;fill-opacity:1;stroke:#000000;stroke-width:2.7;stroke-dasharray:none;stroke-opacity:1"
       id="path1941-9"
       cx="34.680542"
       cy="550.59247"
       rx="8.2702703"
       ry="13.324325"
       transform="rotate(-16.158791)" />
    <ellipse
       style="fill:#000000;fill-opacity:1;stroke:#000000;stroke-width:2.89688;stroke-dasharray:none;stroke-opacity:1"
       id="path1941"
       cx="281.43893"
       cy="520.96912"
       rx="8.1718283"
       ry="15.523179"
       transform="rotate(-10.447556)"
       inkscape:transform-center-x="-5.5135135"
       inkscape:transform-center-y="-6.4324324" />
    <ellipse
       style="fill:none;stroke:#000000;stroke-width:2.97186;stroke-dasharray:none;stroke-opacity:1"
       id="path1945"
       cx="235.24324"
       cy="572.48651"
       rx="13.647853"
       ry="6.2965012" />
    <path
       style="fill:none;stroke:#000000;stroke-width:2.7;stroke-dasharray:none;stroke-opacity:1"
       d="m 279.35135,621.18919 c 37.05936,11.02209 99.64823,-11.91501 78.10811,-11.02703"
       id="path2673"
       sodipodi:nodetypes="cc" />
    <path
       style="fill:none;stroke:#000000;stroke-width:2.7;stroke-dasharray:none;stroke-opacity:1"
       d="m 353.78378,600.97297 c 7.12765,7.06569 10.94386,16.51975 8.27028,21.13514"
       id="path2675"
       sodipodi:nodetypes="cc" />
  </g>
</svg>
