<?xml version="1.0" encoding="UTF-8" standalone="no"?>
<!-- Created with Inkscape (http://www.inkscape.org/) -->

<svg
   version="1.1"
   id="svg9"
   width="165"
   height="157"
   viewBox="0 0 165 157"
   sodipodi:docname="imagem de simbolo OPM.svg"
   inkscape:version="1.2.1 (9c6d41e410, 2022-07-14)"
   xmlns:inkscape="http://www.inkscape.org/namespaces/inkscape"
   xmlns:sodipodi="http://sodipodi.sourceforge.net/DTD/sodipodi-0.dtd"
   xmlns="http://www.w3.org/2000/svg"
   xmlns:svg="http://www.w3.org/2000/svg">
  <defs
     id="defs13" />
  <sodipodi:namedview
     id="namedview11"
     pagecolor="#ffffff"
     bordercolor="#000000"
     borderopacity="0.25"
     inkscape:showpageshadow="2"
     inkscape:pageopacity="0.0"
     inkscape:pagecheckerboard="0"
     inkscape:deskcolor="#d1d1d1"
     showgrid="false"
     inkscape:zoom="5.6568543"
     inkscape:cx="95.282638"
     inkscape:cy="85.02959"
     inkscape:window-width="1920"
     inkscape:window-height="1017"
     inkscape:window-x="-8"
     inkscape:window-y="-8"
     inkscape:window-maximized="1"
     inkscape:current-layer="g15" />
  <g
     inkscape:groupmode="layer"
     inkscape:label="Image"
     id="g15">
    <path
       style="fill:#6a1083;fill-opacity:1;stroke:#873988;stroke-width:0.924929;stroke-opacity:1"
       d="m 86.177154,67.016713 c -2.57539,2.148868 -2.76377,5.369723 -2.51853,8.038853 0.75632,8.23133 0.85192,19.07912 0.98801,27.088224 0.0752,4.42617 0.19408,8.85571 0.56402,13.27141 0.12613,1.5055 0.56401,4.5028 0.56401,4.5028 v 2.13291 c 0,0 2.88534,-3.86977 2.84901,-7.77818 -0.0114,-1.22632 -1.48475,-6.70249 -1.48475,-6.70249 0,0 1.18764,-9.711134 1.32325,-15.240274 0.10476,-4.27148 0.13256,-14.5961 0.13256,-14.5961 0,0 -0.54307,-10.52894 -0.89181,-9.967712 -0.56564,0.910315 -0.65858,-1.473012 -1.52577,-0.749441 z"
       id="path231"
       sodipodi:nodetypes="ssssccscscss" />
    <path
       style="fill:#6a1083;fill-opacity:1;stroke:#6a146c;stroke-width:0.924929;stroke-opacity:1"
       d="m 84.082624,78.207846 c -3.34076,3.92366 -8.199776,6.95482 -13.254367,9.2426 -3.979471,1.80115 -8.536369,2.5891 -12.972354,3.31785 -3.057014,0.5022 -9.306254,0.71096 -9.306254,0.71096 l -4.512123,-0.71096 9.306254,-1.65893 c 0,0 8.645049,-1.6883 12.408338,-3.55484 3.610419,-1.79072 6.607933,-4.41333 9.306255,-7.10969 3.726215,-3.7235 7.023901,-7.852291 9.306251,-12.32345 0.61119,-1.197328 1.12803,-3.791832 1.12803,-3.791832 0,0 1.59592,3.449683 2.25607,5.213769 0.87557,2.339741 1.7646,4.138263 3.32622,6.210353 1.71304,2.27301 3.71179,4.48649 6.26204,6.1131 2.533699,1.61607 5.110316,3.21275 7.896216,4.5028 3.50269,1.62198 7.18229,3.02314 10.9983,4.02882 3.83963,1.01191 11.82775,4.0997 9.45092,2.95929 -0.52152,-0.25022 0.0553,-0.94033 -0.72552,-0.7636 -4.83206,1.09369 -8.66214,-0.47332 -13.51952,-1.48472 -4.54115,-0.94555 -8.90075,-2.56631 -12.972377,-4.5028 -3.157869,-1.50191 -6.513089,-3.04472 -8.742229,-5.45076 -1.0617,-1.14596 -1.97405,-4.02882 -1.97405,-4.02882 l -1.41004,-1.89592 c 0,0 -1.02682,3.53307 -2.25606,4.97678 z"
       id="path233"
       sodipodi:nodetypes="ssscccssscssssssssssccs" />
    <path
       style="fill:#6a1083;fill-opacity:1;stroke:#e323e3;stroke-width:0.554957;stroke-dasharray:none;stroke-opacity:1"
       d="m 73.366326,47.399217 -3.666099,-0.473979 c 0,0 -2.84805,5.19642 -2.84901,7.970541 -8.68e-4,2.504382 0.634935,5.168006 2.567002,7.196786 1.874056,1.967864 4.806567,3.142371 7.614208,4.028821 2.518141,0.795046 5.349497,1.014498 7.970927,1.059373 3.55773,0.0609 6.75467,-0.226428 10.07757,-1.296363 2.5261,-0.813376 5.122016,-1.885587 6.382516,-3.192278 2.83268,-2.936466 2.48691,-3.904765 2.92374,-6.050311 0.50785,-2.494417 0.99435,-5.350829 -0.42301,-7.583664 -0.74331,-1.170975 -3.80712,-2.369895 -3.80712,-2.369895 0,0 -2.024506,0.742747 -1.870407,1.794656 0.10589,0.722855 1.59788,2.016779 1.870407,2.708144 0.85927,2.17985 0.52775,6.364877 -1.455817,8.821242 -1.626209,2.01384 -4.822469,2.800434 -7.556349,3.603471 -1.61701,0.474971 -3.31557,0.432406 -5.07612,0.672496 -2.69088,0.366961 -4.62408,0.04911 -6.751342,-0.599553 -2.262713,-0.689964 -4.455534,-1.826935 -5.996876,-3.380639 -1.174647,-1.184066 -1.980574,-2.710338 -2.193434,-4.241496 -0.230915,-1.66104 -0.449178,-2.718874 1.053315,-4.938307 1.109035,-1.638229 1.185897,-3.729045 1.185897,-3.729045 z"
       id="path235"
       sodipodi:nodetypes="ccasssssaacssaasaaascc" />
    <ellipse
       style="fill:#000000;fill-opacity:1;stroke:#000000;stroke-width:0.924929;stroke-opacity:1"
       id="path351"
       cx="86.056686"
       cy="40.52652"
       rx="8.037219"
       ry="5.2137685" />
    <ellipse
       style="fill:#000000;stroke:#c04ece;stroke-width:0.924929;stroke-opacity:1"
       id="path353"
       cx="63.42556"
       cy="111.14939"
       rx="5.8516598"
       ry="3.199358" />
    <ellipse
       style="fill:#000000;stroke:#c04ece;stroke-width:0.924929;stroke-opacity:1"
       id="path355"
       cx="106.85476"
       cy="111.38637"
       rx="4.3006177"
       ry="3.199358" />
    <ellipse
       style="fill:none;fill-opacity:1;stroke:#000000;stroke-width:0;stroke-dasharray:none;stroke-opacity:1"
       id="path3467"
       cx="130.12038"
       cy="47.221474"
       rx="3.4545944"
       ry="8.827858" />
    <ellipse
       style="fill:none;fill-opacity:1;stroke:#8c3999;stroke-width:0.924929;stroke-dasharray:none;stroke-opacity:1"
       id="path3483"
       cx="84.663422"
       cy="73.730621"
       rx="54.438808"
       ry="33.096432" />
    <ellipse
       style="fill:none;fill-opacity:1;stroke:#ce00d3;stroke-width:1.2949;stroke-dasharray:none;stroke-opacity:1"
       id="path3499"
       cx="85.461052"
       cy="74.568512"
       rx="47.459473"
       ry="30.08005" />
    <ellipse
       style="fill:none;fill-opacity:1;stroke:#8c3999;stroke-width:1.2949;stroke-dasharray:none;stroke-opacity:1"
       id="path10705"
       cx="85.859886"
       cy="107.49737"
       rx="21.336823"
       ry="13.573727" />
    <ellipse
       style="fill:none;fill-opacity:1;stroke:#8c3999;stroke-width:1.2949;stroke-dasharray:none;stroke-opacity:1"
       id="path10709"
       cx="85.959579"
       cy="106.74327"
       rx="17.847157"
       ry="12.484478" />
    <ellipse
       style="fill:none;fill-opacity:1;stroke:#8c3999;stroke-width:1.2949;stroke-dasharray:none;stroke-opacity:1"
       id="path10717"
       cx="85.478783"
       cy="108.16582"
       rx="23.365261"
       ry="15.288597" />
  </g>
</svg>
