<?xml version="1.0" encoding="UTF-8" standalone="no"?>
<!-- Created with Inkscape (http://www.inkscape.org/) -->

<svg
   version="1.1"
   id="svg9"
   width="225"
   height="225"
   viewBox="0 0 225 225"
   sodipodi:docname="imagem de simbolo OPM.svg"
   inkscape:version="1.2.1 (9c6d41e410, 2022-07-14)"
   xmlns:inkscape="http://www.inkscape.org/namespaces/inkscape"
   xmlns:sodipodi="http://sodipodi.sourceforge.net/DTD/sodipodi-0.dtd"
   xmlns="http://www.w3.org/2000/svg"
   xmlns:svg="http://www.w3.org/2000/svg">
  <defs
     id="defs13" />
  <sodipodi:namedview
     id="namedview11"
     pagecolor="#ffffff"
     bordercolor="#000000"
     borderopacity="0.25"
     inkscape:showpageshadow="2"
     inkscape:pageopacity="0.0"
     inkscape:pagecheckerboard="0"
     inkscape:deskcolor="#d1d1d1"
     showgrid="false"
     inkscape:zoom="5.6568543"
     inkscape:cx="95.282638"
     inkscape:cy="89.095454"
     inkscape:window-width="1920"
     inkscape:window-height="1017"
     inkscape:window-x="-8"
     inkscape:window-y="-8"
     inkscape:window-maximized="1"
     inkscape:current-layer="g15" />
  <g
     inkscape:groupmode="layer"
     inkscape:label="Image"
     id="g15">
    <path
       style="fill:#6a1083;stroke:#873988;stroke-opacity:1;fill-opacity:1"
       d="m 106.05109,85.465878 c -2.55252,2.534354 -2.73923,6.333004 -2.49616,9.48094 0.7496,9.707962 0.84435,22.501732 0.97923,31.947592 0.0745,5.22018 0.19236,10.44434 0.55901,15.65217 0.12501,1.77557 0.559,5.31056 0.559,5.31056 v 2.51553 c 0,0 2.85972,-4.56397 2.82371,-9.17351 -0.0113,-1.44631 -1.47156,-7.90485 -1.47156,-7.90485 0,0 1.17709,-11.45321 1.31149,-17.97423 0.10383,-5.03774 0.13139,-17.21449 0.13139,-17.21449 0,0 -0.53825,-12.417735 -0.88389,-11.755828 -0.56062,1.073616 -0.65273,-1.737256 -1.51222,-0.883884 z"
       id="path231"
       sodipodi:nodetypes="ssssccscscss" />
    <path
       style="fill:#6a1083;fill-opacity:1;stroke:#6a146c;stroke-opacity:1"
       d="m 103.97516,98.664596 c -3.31109,4.627524 -8.126951,8.202444 -13.136651,10.900624 -3.944128,2.12427 -8.460555,3.05357 -12.857143,3.91304 -3.029863,0.59229 -9.223602,0.83851 -9.223602,0.83851 l -4.47205,-0.83851 9.223603,-1.95652 c 0,0 8.56827,-1.99117 12.298136,-4.19255 3.578353,-2.11195 6.549246,-5.20503 9.223603,-8.385091 3.693121,-4.391462 6.961524,-9.260919 9.223604,-14.534161 0.60576,-1.412117 1.11801,-4.47205 1.11801,-4.47205 0,0 1.58174,4.068523 2.23603,6.149069 0.86779,2.759468 1.74893,4.880624 3.29668,7.324433 1.69782,2.680759 3.67882,5.291316 6.20642,7.20973 2.5112,1.90597 5.06493,3.78909 7.82609,5.31056 3.47158,1.91294 7.1185,3.56546 10.90062,4.75155 3.80553,1.19343 11.7227,4.83514 9.36698,3.49016 -0.51689,-0.29511 0.0548,-1.10902 -0.71908,-0.90059 -4.78914,1.28989 -8.58521,-0.55823 -13.39945,-1.75106 -4.50081,-1.11517 -8.8217,-3.02668 -12.85715,-5.31056 -3.12983,-1.77134 -6.45525,-3.59091 -8.66459,-6.428571 -1.05227,-1.351531 -1.95652,-4.751553 -1.95652,-4.751553 l -1.39752,-2.236025 c 0,0 -1.0177,4.16686 -2.23602,5.869565 z"
       id="path233"
       sodipodi:nodetypes="ssscccssscssssssssssccs" />
    <path
       style="fill:#6a1083;fill-opacity:1;stroke:#e323e3;stroke-width:0.6;stroke-dasharray:none;stroke-opacity:1"
       d="m 93.354037,62.329193 -3.63354,-0.559007 c 0,0 -2.822755,6.128608 -2.823707,9.40038 -8.6e-4,2.953643 0.629296,6.095096 2.544204,8.487819 1.857412,2.32088 4.763878,3.706082 7.546584,4.751553 2.495776,0.93767 5.301982,1.196489 7.900132,1.249415 3.52614,0.07183 6.69468,-0.267048 9.98807,-1.528918 2.50367,-0.959288 5.07653,-2.223844 6.32584,-3.764943 2.80751,-3.463239 2.46481,-4.605242 2.89776,-7.135678 0.50334,-2.941891 0.98552,-6.310716 -0.41925,-8.9441 -0.73671,-1.381036 -3.7733,-2.795031 -3.7733,-2.795031 0,0 -2.00653,0.875989 -1.8538,2.1166 0.10495,0.852528 1.58369,2.378569 1.8538,3.193959 0.85164,2.570894 0.52306,7.506674 -1.44289,10.403687 -1.61177,2.375104 -4.77964,3.302805 -7.48924,4.249899 -1.60265,0.560176 -3.28613,0.509976 -5.03104,0.793135 -2.66698,0.432791 -4.58301,0.05792 -6.691381,-0.707106 -2.242617,-0.813737 -4.415963,-2.15467 -5.943616,-3.987093 -1.164214,-1.396477 -1.962984,-3.196547 -2.173953,-5.00238 -0.228864,-1.959015 -0.445189,-3.206614 1.04396,-5.824192 1.099185,-1.932111 1.175365,-4.397999 1.175365,-4.397999 z"
       id="path235"
       sodipodi:nodetypes="ccasssssaacssaasaaascc" />
    <ellipse
       style="fill:#000000;stroke:#000000;stroke-opacity:1;fill-opacity:1"
       id="path351"
       cx="105.93168"
       cy="54.223602"
       rx="7.9658384"
       ry="6.1490684" />
    <ellipse
       style="fill:#000000;stroke:#c04ece;stroke-opacity:1"
       id="path353"
       cx="83.501556"
       cy="137.51553"
       rx="5.7996893"
       ry="3.7732918" />
    <ellipse
       style="fill:#000000;stroke:#c04ece;stroke-opacity:1"
       id="path355"
       cx="126.54503"
       cy="137.79503"
       rx="4.2624226"
       ry="3.7732918" />
    <ellipse
       style="fill:none;fill-opacity:1;stroke:#000000;stroke-width:0;stroke-dasharray:none;stroke-opacity:1"
       id="path3467"
       cx="149.60403"
       cy="62.119564"
       rx="3.423913"
       ry="10.41149" />
    <ellipse
       style="fill:none;fill-opacity:1;stroke:#8c3999;stroke-width:1;stroke-dasharray:none;stroke-opacity:1"
       id="path3483"
       cx="104.55079"
       cy="93.384209"
       rx="53.955322"
       ry="39.033611" />
    <ellipse
       style="fill:none;fill-opacity:1;stroke:#ce00d3;stroke-width:1.4;stroke-dasharray:none;stroke-opacity:1"
       id="path3499"
       cx="105.34134"
       cy="94.372406"
       rx="47.037971"
       ry="35.47612" />
    <ellipse
       style="fill:none;fill-opacity:1;stroke:#8c3999;stroke-width:1.4;stroke-dasharray:none;stroke-opacity:1"
       id="path10705"
       cx="105.73662"
       cy="133.20837"
       rx="21.147324"
       ry="16.008722" />
    <ellipse
       style="fill:none;fill-opacity:1;stroke:#8c3999;stroke-width:1.4;stroke-dasharray:none;stroke-opacity:1"
       id="path10709"
       cx="105.83544"
       cy="132.319"
       rx="17.68865"
       ry="14.724072" />
    <ellipse
       style="fill:none;fill-opacity:1;stroke:#8c3999;stroke-width:1.4;stroke-dasharray:none;stroke-opacity:1"
       id="path10717"
       cx="105.35891"
       cy="133.99673"
       rx="23.157747"
       ry="18.031223" />
  </g>
</svg>
