<?xml version="1.0" encoding="UTF-8" standalone="no"?>
<!-- Created with Inkscape (http://www.inkscape.org/) -->

<svg
   width="74mm"
   height="32mm"
   viewBox="0 0 74 32"
   version="1.1"
   id="svg5"
   xml:space="preserve"
   inkscape:version="1.2.1 (9c6d41e410, 2022-07-14)"
   sodipodi:docname="exercicios.svg"
   xmlns:inkscape="http://www.inkscape.org/namespaces/inkscape"
   xmlns:sodipodi="http://sodipodi.sourceforge.net/DTD/sodipodi-0.dtd"
   xmlns="http://www.w3.org/2000/svg"
   xmlns:svg="http://www.w3.org/2000/svg"><sodipodi:namedview
     id="namedview7"
     pagecolor="#ffffff"
     bordercolor="#000000"
     borderopacity="0.25"
     inkscape:showpageshadow="2"
     inkscape:pageopacity="0.0"
     inkscape:pagecheckerboard="0"
     inkscape:deskcolor="#d1d1d1"
     inkscape:document-units="mm"
     showgrid="false"
     inkscape:zoom="1.0544998"
     inkscape:cx="373.63688"
     inkscape:cy="137.98012"
     inkscape:window-width="1920"
     inkscape:window-height="1040"
     inkscape:window-x="0"
     inkscape:window-y="0"
     inkscape:window-maximized="1"
     inkscape:current-layer="layer1" /><defs
     id="defs2" /><g
     inkscape:label="Camada 1"
     inkscape:groupmode="layer"
     id="layer1"><path
       style="fill:none;stroke-width:0.264583"
       d="m 109.89808,10.036354 -18.567256,70.756298 44.159956,38.639958 63.73085,-9.53453"
       id="path936" /><path
       style="fill:#1ea7a1;fill-opacity:1;stroke:none;stroke-width:0.2;stroke-dasharray:none;stroke-opacity:1"
       d="m 25.169073,10.871036 c 0.67245,4.920381 4.03026,10.511211 7.27635,13.298162 6.8356,4.54859 11.01258,2.5216 14.92908,-0.43908 3.61419,-3.325921 6.01502,-7.737321 6.52361,-12.419992 l -6.39816,-0.75273 c -0.92734,3.47127 -2.25583,6.390951 -4.51636,8.029081 -2.45423,1.77879 -4.65255,1.12646 -6.77455,-0.25091 -3.03061,-2.57862 -3.11479,-5.078021 -3.76362,-7.339081 z"
       id="path5545"
       sodipodi:nodetypes="ccccccccc" /><path
       style="fill:#0c0c0c;fill-opacity:1;stroke:none;stroke-width:0.6;stroke-dasharray:none;stroke-opacity:1"
       d="m 73.329693,9.2402863 c -9.89984,-2.940625 -20.22515,-5.370675 -32.46773,-5.500005 -13.45006,-0.34636 -25.69718,1.71317 -37.2580702,5.145165 1.81902,4.6342797 5.09597,8.7810507 9.0484102,12.0645207 7.06644,5.870431 7.42784,5.835011 10.2903,7.806451 C 17.276693,23.229027 11.940613,17.481747 7.6845328,11.014476 17.080543,7.5666363 27.628943,5.6004413 40.329703,6.4015713 c 20.59862,0.710185 22.69329,1.199185 32.99999,2.838715 z"
       id="path4003"
       sodipodi:nodetypes="cccscccc" /><path
       style="fill:#000000;fill-opacity:1;stroke:none;stroke-width:0.600001;stroke-dasharray:none;stroke-opacity:1"
       d="m 23.474873,6.7564133 c 0.39929,4.1298627 0.84552,8.2477737 2.48385,11.5322637 1.75789,3.52419 4.06379,6.818481 8.33872,8.870961 4.62922,2.22258 7.88726,1.27053 10.82259,-0.17742 3.30626,-1.63092 5.7896,-4.141341 7.4516,-6.919351 1.61715,-2.70306 2.56279,-5.139211 2.83871,-7.806451 l 0.53226,-5.1451597 -1.77419,-0.17742 c 0.14328,3.2035497 -0.57967,6.0725997 -1.41935,8.8709607 -0.79089,2.63576 -2.35833,4.76852 -4.43548,6.91936 -2.22112,2.299921 -4.92134,3.726091 -8.16128,3.725811 -7.58352,-6.5e-4 -9.90297,-4.496641 -12.41936,-8.516131 -1.36702,-2.18358 -2.34841,-4.919861 -2.48388,-7.629041 l -0.17743,-3.5483827 c 0.0805,-0.30639 -0.75265,-0.15593 -1.59676,0 z"
       id="path4059"
       sodipodi:nodetypes="csssssccssssscc" /><path
       style="fill:#000000;fill-opacity:1;stroke:none;stroke-width:0.2;stroke-dasharray:none;stroke-opacity:1"
       d="m 24.570843,29.619478 c 6.05746,0.52403 12.42037,0.58988 18.80646,0.62096 6.32782,-0.0444 12.2601,-0.23713 17.91935,-0.53225 -6.56451,0.94989 -13.12903,1.30456 -19.69354,1.50806 -6.05674,0.0578 -11.72825,-0.48366 -17.03227,-1.59677 z"
       id="path4193"
       sodipodi:nodetypes="ccccc" /><path
       style="fill:#ffffff;fill-opacity:1;stroke:none;stroke-width:0.2;stroke-dasharray:none;stroke-opacity:1"
       d="m 33.198153,14.132846 0.56454,1.317281 0.94092,1.38 0.75274,1.00363 0.56454,0.31364 0.62727,0.43909 0.31364,0.25091 0.37634,0.12545 0.4391,0.31364 0.87818,0.18818"
       id="path6141" /><path
       style="fill:none;fill-opacity:1;stroke:#090804;stroke-width:0.4;stroke-dasharray:none;stroke-opacity:1"
       d="m 33.009983,14.070126 c 1.15119,3.495681 3.53147,5.745871 6.58635,5.645451 5.29579,-0.17408 6.67584,-4.871321 7.77817,-9.095451 -1.86464,8.910481 -9.87603,13.564422 -14.36452,3.45 z"
       id="path6143"
       sodipodi:nodetypes="cscc" /><path
       style="fill:#153831;fill-opacity:1;stroke:#090804;stroke-width:0.4;stroke-dasharray:none;stroke-opacity:1"
       d="m 25.169083,6.8564943 0.18817,4.0772717 7.08816,0.0627 0.62728,2.94818 h 0.1882 c 1.41527,2.276761 2.20879,5.042041 5.83361,5.582731 3.08816,-0.13426 5.93809,-1.89641 8.0291,-8.844541 l 0.0627,-0.25091 6.58635,0.87818 0.37637,-4.2654497 c -9.55419,-0.591681 -19.10005,-1.224983 -28.97994,-0.188162 z"
       id="path6685"
       sodipodi:nodetypes="ccccccccccc" /><circle
       style="fill:#ffffff;fill-opacity:1;stroke:none;stroke-width:0.653923;stroke-dasharray:none;stroke-opacity:1"
       id="path4113"
       cx="32.2659"
       cy="11.853749"
       r="2.9004586" /><circle
       style="fill:#ffffff;fill-opacity:1;stroke:none;stroke-width:0.423922;stroke-dasharray:none;stroke-opacity:1"
       id="path4113-2"
       cx="44.194214"
       cy="17.834126"
       r="1.8802972" /></g></svg>
